<?xml version="1.0" encoding="UTF-8" standalone="no"?>
<!-- Created with Inkscape (http://www.inkscape.org/) -->

<svg
   xmlns:dc="http://purl.org/dc/elements/1.1/"
   xmlns:cc="http://creativecommons.org/ns#"
   xmlns:rdf="http://www.w3.org/1999/02/22-rdf-syntax-ns#"
   xmlns:svg="http://www.w3.org/2000/svg"
   xmlns="http://www.w3.org/2000/svg"
   xmlns:sodipodi="http://sodipodi.sourceforge.net/DTD/sodipodi-0.dtd"
   xmlns:inkscape="http://www.inkscape.org/namespaces/inkscape"
   width="500"
   height="500"
   id="svg2"
   version="1.1"
   inkscape:version="0.48.2 r9819"
   sodipodi:docname="signal.svg">
  <defs
     id="defs4" />
  <sodipodi:namedview
     id="base"
     pagecolor="#ffffff"
     bordercolor="#666666"
     borderopacity="1.0"
     inkscape:pageopacity="0.0"
     inkscape:pageshadow="2"
     inkscape:zoom="0.175"
     inkscape:cx="-1067.2168"
     inkscape:cy="164.37412"
     inkscape:document-units="px"
     inkscape:current-layer="svg2"
     showgrid="false"
     inkscape:window-width="1024"
     inkscape:window-height="744"
     inkscape:window-x="0"
     inkscape:window-y="24"
     inkscape:window-maximized="1" />
  <metadata
     id="metadata7">
    <rdf:RDF>
      <cc:Work
         rdf:about="">
        <dc:format>image/svg+xml</dc:format>
        <dc:type
           rdf:resource="http://purl.org/dc/dcmitype/StillImage" />
        <dc:title />
      </cc:Work>
    </rdf:RDF>
  </metadata>
  <g
     inkscape:groupmode="layer"
     id="layer2"
     inkscape:label="Capa"
     transform="translate(0,-552.36218)" />
  <g
     id="g3855"
     transform="matrix(3.0374607,0,0,3.4801371,-891.82174,-1743.4495)"
     inkscape:export-filename="/home/ima/tmp/signal.png"
     inkscape:export-xdpi="300"
     inkscape:export-ydpi="300">
    <g
       transform="translate(42,0)"
       id="g3019">
      <g
         transform="translate(-1.4285714,-264.28571)"
         id="g3821">
        <g
           id="g3015"
           transform="translate(-42,0)">
          <path
             sodipodi:nodetypes="ccccc"
             inkscape:connector-curvature="0"
             id="path3013"
             d="m 385.97214,908.2175 9.59645,0 c -2.33793,-47.47717 0.008,-94.95434 1.51523,-142.43151 l -16.86185,2.14286 z"
             style="fill:#2d2419;fill-opacity:1;stroke:#000000;stroke-width:1px;stroke-linecap:butt;stroke-linejoin:miter;stroke-opacity:1" />
          <path
             sodipodi:nodetypes="cccccccc"
             inkscape:connector-curvature="0"
             id="path3011"
             d="m 361.90705,908.4626 c 6.60004,-45.45687 9.64239,-95.19944 2.85189,-140.65631 l 14.14214,-0.50507 2.52538,7.07106 1.51523,-7.07106 6.56599,0 -3.68347,141.12549 z"
             style="fill:#7c653b;fill-opacity:1;stroke:#000000;stroke-width:1px;stroke-linecap:butt;stroke-linejoin:miter;stroke-opacity:1" />
        </g>
        <path
           inkscape:connector-curvature="0"
           id="path3009"
           d="m 406.04893,774.87736 9.72272,5.80838 0.12626,7.82868 -5.3033,3.28299 -1.64149,8.33376 4.92449,0 -1.38896,24.87501 -4.41942,0.63135 0,2.90418 3.03046,16.41498 -11.49049,4.54569 -2.39911,15.65736 -19.5717,-23.10724 6.31345,-62.37692 z"
           style="fill:#312822;fill-opacity:1;stroke:#000000;stroke-width:1px;stroke-linecap:butt;stroke-linejoin:miter;stroke-opacity:1" />
        <path
           style="fill:#61512e;fill-opacity:1;stroke:#000000;stroke-width:1px;stroke-linecap:butt;stroke-linejoin:miter;stroke-opacity:1"
           d="m 306.10714,781.79075 5.08929,3.92857 11.25,0.71429 0.35714,-6.60714 -10.08928,0 -5.35715,-0.89286 z"
           id="path3028"
           inkscape:connector-curvature="0"
           sodipodi:nodetypes="ccccccc" />
        <path
           sodipodi:nodetypes="cccccccccccccccccccccccccccccccccc"
           inkscape:connector-curvature="0"
           id="path2997"
           d="m 257.85714,778.07647 49.28572,0.71428 7.14285,6.42858 5.71429,0 1.42857,-7.85715 43.57143,2.14286 43.57143,-7.85714 -4.28572,14.28571 -9.28571,0.71429 10,4.28571 -0.71429,2.85714 -15,2.14286 15.71429,4.28572 -1.42857,22.14285 -11.42857,1.42857 10.71428,5 -1.42857,15.71429 -16.42857,2.85714 15.71429,2.14286 2.14285,20 c -46.70471,-8.54536 -97.21578,-8.52639 -149.28571,-5 l 2.85714,-25 15.71429,-1.42857 -14.28572,-2.14286 0,-15 5,-2.85714 -5.71428,-2.14286 1.42857,-3.57143 12.85714,-1.42857 -12.85714,-2.14286 0,-13.57142 10.71428,-3.57143 -12.14285,-0.71429 z"
           style="fill:#b18f5f;fill-opacity:1;stroke:#000000;stroke-width:1px;stroke-linecap:butt;stroke-linejoin:miter;stroke-opacity:1" />
        <path
           inkscape:connector-curvature="0"
           id="path2999"
           d="m 400.71429,849.68361 9.64285,0.17857 3.57143,18.75 -10.53571,0.35715 z"
           style="fill:#61512e;fill-opacity:1;stroke:#000000;stroke-width:1px;stroke-linecap:butt;stroke-linejoin:miter;stroke-opacity:1" />
        <path
           inkscape:connector-curvature="0"
           id="path3001"
           d="m 400.53571,844.32647 10.71429,0.89286 0,-16.25 -8.75,-0.35715 z"
           style="fill:#61512e;fill-opacity:1;stroke:#000000;stroke-width:1px;stroke-linecap:butt;stroke-linejoin:miter;stroke-opacity:1" />
        <path
           inkscape:connector-curvature="0"
           id="path3003"
           d="m 403.03571,821.6479 8.92858,3.03571 2.14285,-24.64286 -8.75,0.35715 z"
           style="fill:#61512e;fill-opacity:1;stroke:#000000;stroke-width:1px;stroke-linecap:butt;stroke-linejoin:miter;stroke-opacity:1" />
        <path
           inkscape:connector-curvature="0"
           id="path3005"
           d="m 404.10714,793.79075 6.07143,2.32143 4.82143,1.07143 0.35714,-4.82143 -4.64285,-0.53571 -5.35715,-0.89286 z"
           style="fill:#61512e;fill-opacity:1;stroke:#000000;stroke-width:1px;stroke-linecap:butt;stroke-linejoin:miter;stroke-opacity:1" />
        <path
           sodipodi:nodetypes="ccccc"
           inkscape:connector-curvature="0"
           id="path3007"
           d="m 404.19009,785.87234 11.8507,3.11865 1.07143,-13.39285 -8.39285,-3.75 z"
           style="fill:#61512e;fill-opacity:1;stroke:#000000;stroke-width:1px;stroke-linecap:butt;stroke-linejoin:miter;stroke-opacity:1" />
        <path
           sodipodi:type="arc"
           style="color:#000000;fill:#000000;fill-opacity:1;fill-rule:nonzero;stroke:#333333;stroke-width:1;stroke-linecap:butt;stroke-linejoin:miter;stroke-miterlimit:4;stroke-opacity:1;stroke-dasharray:none;stroke-dashoffset:0;marker:none;visibility:visible;display:inline;overflow:visible;enable-background:accumulate"
           id="path3030"
           sodipodi:cx="380.53571"
           sodipodi:cy="788.9693"
           sodipodi:rx="4.8214288"
           sodipodi:ry="4.8214288"
           d="m 385.35713,788.9693 c 0,2.6628 -2.15862,4.82143 -4.82142,4.82143 -2.66281,0 -4.82143,-2.15863 -4.82143,-4.82143 0,-2.6628 2.15862,-4.82143 4.82143,-4.82143 2.6628,0 4.82142,2.15863 4.82142,4.82143 z"
           transform="translate(-46,0)" />
        <path
           transform="translate(-46.17856,-0.17854587)"
           sodipodi:type="arc"
           style="color:#000000;fill:#cccccc;fill-opacity:1;fill-rule:nonzero;stroke:#333333;stroke-width:1;stroke-linecap:butt;stroke-linejoin:miter;stroke-miterlimit:4;stroke-opacity:1;stroke-dasharray:none;stroke-dashoffset:0;marker:none;visibility:visible;display:inline;overflow:visible;enable-background:accumulate"
           id="path3030-9"
           sodipodi:cx="380.53571"
           sodipodi:cy="788.9693"
           sodipodi:rx="4.8214288"
           sodipodi:ry="4.8214288"
           d="m 385.35713,788.9693 c 0,2.6628 -2.15862,4.82143 -4.82142,4.82143 -2.66281,0 -4.82143,-2.15863 -4.82143,-4.82143 0,-2.6628 2.15862,-4.82143 4.82143,-4.82143 2.6628,0 4.82142,2.15863 4.82142,4.82143 z" />
      </g>
    </g>
  </g>
</svg>
