<?xml version="1.0" encoding="UTF-8"?>
<svg width="734" height="792.9826" xmlns="http://www.w3.org/2000/svg" xmlns:xlink="http://www.w3.org/1999/xlink">
 <title>wood sign</title>
 <defs>
  <linearGradient id="linearGradient2787">
   <stop offset="0" id="stop2789" stop-color="#000000"/>
   <stop offset="1" id="stop2791" stop-opacity="0" stop-color="#000000"/>
  </linearGradient>
  <linearGradient xlink:href="#linearGradient2787" id="linearGradient2793" x1="0.474242" y1="-Infinity" x2="0.500001" y2="Infinity"/>
  <linearGradient xlink:href="#linearGradient2787" id="linearGradient2609" x1="0.474242" y1="-Infinity" x2="0.500001" y2="Infinity"/>
  <linearGradient xlink:href="#linearGradient2787" id="linearGradient2619" x1="0.474242" y1="-Infinity" x2="0.500001" y2="Infinity"/>
  <linearGradient xlink:href="#linearGradient2787" id="linearGradient2651" x1="0.474242" y1="-Infinity" x2="0.500001" y2="Infinity"/>
  <linearGradient xlink:href="#linearGradient2787" id="linearGradient2661" x1="0.474242" y1="-Infinity" x2="0.500001" y2="Infinity"/>
  <linearGradient xlink:href="#linearGradient2787" id="linearGradient2671" x1="0.474242" y1="-Infinity" x2="0.500001" y2="Infinity"/>
  <linearGradient xlink:href="#linearGradient2787" id="linearGradient2752" x1="0.474242" y1="-Infinity" x2="0.500001" y2="Infinity"/>
  <linearGradient xlink:href="#linearGradient2787" id="linearGradient2754" x1="0.474242" y1="-Infinity" x2="0.500001" y2="Infinity"/>
 </defs>
 <metadata id="metadata7">image/svg+xml</metadata>
 <g>
  <title>Layer 1</title>
  <g id="layer1">
   <rect id="rect4275" width="62.932503" height="188.09041" x="352.4859" y="263.18552" stroke-dashoffset="0" stroke-miterlimit="4" stroke-linejoin="bevel" stroke-linecap="round" stroke-width="4" fill-rule="nonzero" fill="#000000" opacity="0.5"/>
   <g id="g4375">
    <path d="m11.7588,290.268982c204.206197,-3.633972 413.239186,-4.472961 617.303212,-12.097961l78.782959,-0.289001l7.490051,33.243988c-1.014038,-14.803986 -55.924011,5.654999 -1.015015,12.355988l-3.379028,41.125l-180.988953,6.55899l-515.096926,5.82901l3.017599,-47.894989c18.9543,-1.89801 15.568699,-7.300995 -3.2565,-15.126007l-2.8574,-23.705017l0,0z" id="path4269" stroke-dashoffset="0" stroke-miterlimit="4" marker-end="none" marker-mid="none" marker-start="none" stroke-linejoin="bevel" stroke-linecap="round" stroke-width="4" fill-rule="nonzero" fill="#8f5902"/>
    <path id="path4347" d="m705.913025,279.90802c-37.911011,2.908997 -75.471008,7.631958 -113.179016,11.573975c38.161987,-1.48999 75.283997,-8.79599 113.375977,-10.73999l-0.19696,-0.833984zm-122.779053,13.20697l-4.871948,0.540009l4.871948,-0.540009l0,0zm-5.857971,0.661011c-92.618011,5.412994 -185.152008,13.190979 -278.102997,14.609009c-87.497009,-2.798004 -174.910004,-7.347015 -262.515503,-7.915009c-13.216402,-0.92099 -32.948291,-0.391022 -7.824402,0.19101c83.593903,2.159973 167.2229,3.988983 250.661896,8.260986c76.869019,1.22998 153.286011,-6.188995 229.867981,-9.682007c22.69104,-1.463013 45.352051,-3.201996 67.913025,-5.463989zm134.544983,12.47699c-10.38501,-0.822998 -2.80896,2.700989 0,0zm-11.224976,0.730011c-121.609985,7.591003 -243.65802,10.649994 -365.697021,11.67099c-12.208984,0.223999 -59.138,1.575012 -25.567993,0.97699c129.307007,-1.892975 258.991028,-2.812988 387.731018,-11.764984c1.177979,-0.293976 2.356018,-0.58902 3.533997,-0.882996zm-572.198013,8.654999c-35.191399,0.507019 -70.354195,1.940002 -105.401196,4.23999c35.3713,-0.623993 70.625698,-3.609985 106.010204,-3.852997l-0.609009,-0.386993l0,0l0,0zm6.350998,0.591003c22.137009,1.571991 70.699005,3.580994 76.184006,3.187012c-25.395996,-1.044006 -50.735001,-2.871033 -76.184006,-3.187012zm145.031006,3.266998c-10.330994,-0.222992 -51.339005,0.530975 -20.244995,0.665009c1.704987,0.152985 40.003998,-0.415009 20.244995,-0.665009zm-54.201996,0.207977l5.434998,0.226013l-5.434998,-0.226013l0,0zm-197.608902,6.569031c55.1642,5.056976 110.927902,6.897003 166.3759,10.274994c113.622009,5.970001 227.466003,10.526001 341.430023,10.927002c-169.624023,-1.71402 -338.857025,-10.96402 -507.805923,-21.201996l0,0zm361.198898,0.347992c-5.514008,0.497986 15.049988,0.057983 0,0zm5.416016,0.277985c10.904999,0.332001 59.508972,5.478027 27.347992,4.417023c-20.809021,-0.344025 -41.677002,-0.388 -62.382019,-2.072998c13.187012,-1.740021 34.189026,-3.246002 8.606018,-2.072021c-19.679016,1.479004 -39.402008,3.119019 -59.226013,2.987c60.953003,1.466003 122.497009,-1.078979 182.764008,6.824005c67.907013,2.231018 137.566986,-5.173981 203.644989,9.492004c30.577026,3.102997 -22.645996,-5.803986 -33.302979,-5.868011c-26.492004,-6.100983 19.515015,-5.932983 28.075989,-7.401978c29.099976,-3.01001 -15.343994,0.451996 -24.585022,1.401978c-58.389954,4.466003 -117.020996,-2.145996 -175.562988,-1.574982c-31.966003,-0.174011 -63.447998,-5.28302 -95.379974,-6.132019zm218.382965,10.462006c-3.562988,-1.881989 -0.998962,1.748016 0,0zm-278.098969,-7.507996c4.902985,0.062012 -4.903015,0.062012 0,0zm-25.697998,0.035004l-0.788025,0.070007l0.788025,-0.070007zm0.14798,0.520996l0.541016,0l-0.541016,0zm370.109985,2.085999c2.679016,0.132996 1.234009,0.058014 0,0zm-216.315979,0.313019c34.725006,1.205994 69.523987,1.171997 104.218994,2.849976c-34.649963,3.01001 -70.026001,2.208008 -104.218994,-2.849976zm127.013,2.884979c7.958008,0.274017 -7.117981,0.141998 0,0zm23.924988,1.007019c10.897034,-2.112 0.859009,2.580994 0,0zm-54.054016,10.67099c-13.138977,-0.130005 -25.072998,0.506012 -4.944946,0.507996c51.642944,0.674988 103.240967,2.678009 154.898987,2.828003c-50.018982,-0.300995 -99.923035,-3.408997 -149.954041,-3.335999zm-376.558975,2.259003c-20.347,0.575989 -64.421997,-0.325012 -69.711998,0.484009c100.265007,-1.804016 200.221016,5.222992 299.872993,11.946991c50.044006,1.997009 100.190033,1.531982 150.287018,1.298004c-42.475037,-1.263 -85.184021,0.963989 -127.710022,-1.25c-84.384003,-2.851013 -168.138,-12.652008 -252.737991,-12.479004l0,0zm380.448013,13.729004c-4.202026,1.095978 4.296997,-0.35202 0,0zm-1.132019,0.416992c-34.151001,6.428986 -69.776978,5.808014 -104.809998,6.429993c35,-0.337982 71.161011,1.897003 104.809998,-6.429993zm-493.086288,-14.076996c-10.953701,0.363007 -43.309702,0.076996 -39.666103,0.700989c13.9282,-0.040009 44.9688,0.410004 48.652203,-0.626984c-2.995102,-0.035004 -5.990601,-0.055023 -8.986099,-0.074005zm-25.796402,13.798981c-9.257702,-1.086975 -41.31151,5.276001 -16.546101,2.009003c11.952702,-0.562988 46.800999,-1.457001 16.546101,-2.009003zm19.790398,1.251007c47.587303,10.188995 97.789299,6.175018 146.705299,6.464996c-45.722,-1.02298 -92.048996,2.489014 -137.014999,-5.285004c-3.228897,-0.39798 -6.458199,-0.793976 -9.6903,-1.179993zm-1.772301,0.243011l0.689201,0.139984l-0.689201,-0.139984zm389.604614,5.283997c-79.042999,2.121002 -158.162018,1.612 -237.238007,0.972992c79.054993,1.497009 158.256989,2.578003 237.238007,-0.972992z" stroke-dashoffset="0" stroke-miterlimit="4" marker-end="none" marker-mid="none" marker-start="none" stroke-linejoin="bevel" stroke-linecap="round" stroke-width="4" fill-rule="nonzero" fill="#e9b96e"/>
    <path d="m705.913025,279.90802c-37.911011,2.908997 -75.471008,7.631958 -113.179016,11.573975c38.161987,-1.48999 75.283997,-8.79599 113.375977,-10.73999l-0.19696,-0.833984zm-122.779053,13.20697l-4.871948,0.540009l4.871948,-0.540009l0,0zm-5.857971,0.661011c-92.618011,5.412994 -185.152008,13.190979 -278.102997,14.609009c-87.497009,-2.798004 -174.910004,-7.347015 -262.515503,-7.915009c-13.216402,-0.92099 -32.948291,-0.391022 -7.824402,0.19101c83.593903,2.159973 167.2229,3.988983 250.661896,8.260986c76.869019,1.22998 153.286011,-6.188995 229.867981,-9.682007c22.69104,-1.463013 45.352051,-3.201996 67.913025,-5.463989zm134.544983,12.47699c-10.38501,-0.822998 -2.80896,2.700989 0,0zm-11.224976,0.730011c-121.609985,7.591003 -243.65802,10.649994 -365.697021,11.67099c-12.208984,0.223999 -59.138,1.575012 -25.567993,0.97699c129.307007,-1.892975 258.991028,-2.812988 387.731018,-11.764984c1.177979,-0.293976 2.356018,-0.58902 3.533997,-0.882996zm-572.198013,8.654999c-35.191399,0.507019 -70.354195,1.940002 -105.401196,4.23999c35.3713,-0.623993 70.625698,-3.609985 106.010204,-3.852997l-0.609009,-0.386993l0,0l0,0zm6.350998,0.591003c22.137009,1.571991 70.699005,3.580994 76.184006,3.187012c-25.395996,-1.044006 -50.735001,-2.871033 -76.184006,-3.187012zm145.031006,3.266998c-10.330994,-0.222992 -51.339005,0.530975 -20.244995,0.665009c1.704987,0.152985 40.003998,-0.415009 20.244995,-0.665009zm-54.201996,0.207977l5.434998,0.226013l-5.434998,-0.226013l0,0zm-197.608902,6.569031c55.1642,5.056976 110.927902,6.897003 166.3759,10.274994c113.622009,5.970001 227.466003,10.526001 341.430023,10.927002c-169.624023,-1.71402 -338.857025,-10.96402 -507.805923,-21.201996l0,0zm361.198898,0.347992c-5.514008,0.497986 15.049988,0.057983 0,0zm5.416016,0.277985c10.904999,0.332001 59.508972,5.478027 27.347992,4.417023c-20.809021,-0.344025 -41.677002,-0.388 -62.382019,-2.072998c13.187012,-1.740021 34.189026,-3.246002 8.606018,-2.072021c-19.679016,1.479004 -39.402008,3.119019 -59.226013,2.987c60.953003,1.466003 122.497009,-1.078979 182.764008,6.824005c67.907013,2.231018 137.566986,-5.173981 203.644989,9.492004c30.577026,3.102997 -22.645996,-5.803986 -33.302979,-5.868011c-26.492004,-6.100983 19.515015,-5.932983 28.075989,-7.401978c29.099976,-3.01001 -15.343994,0.451996 -24.585022,1.401978c-58.389954,4.466003 -117.020996,-2.145996 -175.562988,-1.574982c-31.966003,-0.174011 -63.447998,-5.28302 -95.379974,-6.132019zm218.382965,10.462006c-3.562988,-1.881989 -0.998962,1.748016 0,0zm-278.098969,-7.507996c4.902985,0.062012 -4.903015,0.062012 0,0zm-25.697998,0.035004l-0.788025,0.070007l0.788025,-0.070007zm0.14798,0.520996l0.541016,0l-0.541016,0zm370.109985,2.085999c2.679016,0.132996 1.234009,0.058014 0,0zm-216.315979,0.313019c34.725006,1.205994 69.523987,1.171997 104.218994,2.849976c-34.649963,3.01001 -70.026001,2.208008 -104.218994,-2.849976zm127.013,2.884979c7.958008,0.274017 -7.117981,0.141998 0,0zm23.924988,1.007019c10.897034,-2.112 0.859009,2.580994 0,0zm-54.054016,10.67099c-13.138977,-0.130005 -25.072998,0.506012 -4.944946,0.507996c51.642944,0.674988 103.240967,2.678009 154.898987,2.828003c-50.018982,-0.300995 -99.923035,-3.408997 -149.954041,-3.335999zm-376.558975,2.259003c-20.347,0.575989 -64.421997,-0.325012 -69.711998,0.484009c100.265007,-1.804016 200.221016,5.222992 299.872993,11.946991c50.044006,1.997009 100.190033,1.531982 150.287018,1.298004c-42.475037,-1.263 -85.184021,0.963989 -127.710022,-1.25c-84.384003,-2.851013 -168.138,-12.652008 -252.737991,-12.479004l0,0zm380.448013,13.729004c-4.202026,1.095978 4.296997,-0.35202 0,0zm-1.132019,0.416992c-34.151001,6.428986 -69.776978,5.808014 -104.809998,6.429993c35,-0.337982 71.161011,1.897003 104.809998,-6.429993zm-493.086288,-14.076996c-10.953701,0.363007 -43.309702,0.076996 -39.666103,0.700989c13.9282,-0.040009 44.9688,0.410004 48.652203,-0.626984c-2.995102,-0.035004 -5.990601,-0.055023 -8.986099,-0.074005zm-25.796402,13.798981c-9.257702,-1.086975 -41.31151,5.276001 -16.546101,2.009003c11.952702,-0.562988 46.800999,-1.457001 16.546101,-2.009003zm19.790398,1.251007c47.587303,10.188995 97.789299,6.175018 146.705299,6.464996c-45.722,-1.02298 -92.048996,2.489014 -137.014999,-5.285004c-3.228897,-0.39798 -6.458199,-0.793976 -9.6903,-1.179993zm-1.772301,0.243011l0.689201,0.139984l-0.689201,-0.139984zm389.604614,5.283997c-79.042999,2.121002 -158.162018,1.612 -237.238007,0.972992c79.054993,1.497009 158.256989,2.578003 237.238007,-0.972992z" id="path4371" stroke-dashoffset="0" stroke-miterlimit="4" marker-end="none" marker-mid="none" marker-start="none" stroke-linejoin="bevel" stroke-linecap="round" stroke-width="4" fill-rule="nonzero" fill="#e9b96e"/>
    <path id="path4373" d="m703.684998,278.335022c-37.911011,2.908997 -75.471008,7.631958 -113.179016,11.573975c38.162048,-1.48999 75.285034,-8.79599 113.376038,-10.73999l-0.197021,-0.833984zm-122.778992,13.207977l-4.872009,0.539001l4.872009,-0.539001l0,0zm-5.858032,0.660004c-92.617981,5.412994 -185.151978,13.190979 -278.102966,14.609009c-87.497009,-2.798004 -174.910004,-7.347015 -262.515408,-7.914001c-13.2164,-0.921997 -32.94827,-0.392029 -7.8244,0.190002c83.593798,2.159973 167.222803,3.988983 250.661798,8.260986c76.868988,1.22998 153.286011,-6.188995 229.868011,-9.681c22.690979,-1.46402 45.35199,-3.203003 67.912964,-5.464996zm134.545044,12.477997c-10.38501,-0.822998 -2.809021,2.699982 0,0zm-11.223999,0.729004c-121.611023,7.591003 -243.659027,10.649994 -365.698029,11.67099c-12.208984,0.223999 -59.138,1.575012 -25.567993,0.97699c129.307007,-1.893005 258.990997,-2.812988 387.730988,-11.764984c1.17804,-0.294006 2.356018,-0.587982 3.535034,-0.882996zm-572.19902,8.654999c-35.191299,0.507019 -70.354099,1.940002 -105.400999,4.23999c35.371202,-0.623993 70.625601,-3.609985 106.011,-3.852997l-0.610001,-0.386993l0,0zm6.350998,0.591003c22.137009,1.571991 70.699005,3.580994 76.184006,3.187012c-25.395996,-1.044006 -50.735001,-2.871033 -76.184006,-3.187012zm145.031006,3.266998c-10.330994,-0.222992 -51.339005,0.530975 -20.244995,0.665009c1.704987,0.152985 40.003998,-0.415009 20.244995,-0.665009zm-54.201996,0.209015l5.434998,0.224976l-5.434998,-0.224976l0,0zm-197.608807,6.56897c55.164204,5.056 110.927807,6.895996 166.375805,10.274017c113.622009,5.970001 227.466003,10.526001 341.429993,10.927002c-169.623993,-1.71402 -338.856995,-10.96402 -507.805798,-21.201019l0,0zm361.19981,0.347015c-5.514008,0.498993 15.048981,0.057983 0,0zm5.414978,0.277985c10.904999,0.332001 59.509003,5.477997 27.348999,4.417023c-20.80899,-0.344025 -41.677979,-0.388 -62.381989,-2.072998c13.186005,-1.740021 34.187988,-3.246002 8.605011,-2.072021c-19.679016,1.479004 -39.402008,3.119019 -59.226013,2.987c60.95401,1.466003 122.497009,-1.078979 182.765015,6.824005c67.905975,2.231995 137.56601,-5.174011 203.644989,9.492004c30.575989,3.104004 -22.646973,-5.804016 -33.304016,-5.868011c-26.492004,-6.100983 19.515991,-5.932983 28.075989,-7.401978c29.100037,-3.01001 -15.342957,0.451996 -24.584961,1.401978c-58.390015,4.466003 -117.020996,-2.144989 -175.563019,-1.574982c-31.966003,-0.174011 -63.447998,-5.28302 -95.380005,-6.132019zm218.384003,10.462006c-3.563965,-1.881989 -1,1.748016 0,0zm-278.099976,-7.507996c4.902985,0.062012 -4.903015,0.062012 0,0zm-25.698029,0.035004l-0.787994,0.070007l0.787994,-0.070007zm0.14801,0.522003l0.541016,0l-0.541016,0zm370.110016,2.084991c2.679993,0.132996 1.234009,0.058014 0,0zm-216.31601,0.312988c34.725006,1.206024 69.524017,1.172028 104.219025,2.850006c-34.650024,3.01001 -70.026031,2.208008 -104.219025,-2.850006zm127.01297,2.88501c7.958008,0.274017 -7.117981,0.141998 0,0zm23.926025,1.007996c10.895996,-2.112976 0.858032,2.580017 0,0zm-54.054993,10.670013c-13.138977,-0.130005 -25.072998,0.505981 -4.945007,0.507996c51.643005,0.674988 103.241028,2.678009 154.898987,2.82901c-50.018982,-0.302002 -99.922974,-3.410004 -149.953979,-3.337006l0,0zm-376.559006,2.259003c-20.347,0.575989 -64.421997,-0.325012 -69.711998,0.483978c100.264992,-1.803986 200.220985,5.223022 299.872993,11.948029c50.044006,1.995972 100.190002,1.530975 150.286987,1.296997c-42.474976,-1.263 -85.18399,0.963989 -127.709991,-1.25c-84.384003,-2.851013 -168.138,-12.652008 -252.737991,-12.479004zm380.447983,13.729004c-4.201965,1.096985 4.296997,-0.35202 0,0zm-1.131958,0.416992c-34.151001,6.428986 -69.777039,5.807983 -104.810028,6.429993c35,-0.337982 71.16098,1.897003 104.810028,-6.429993zm-493.086121,-14.075989c-10.953804,0.362 -43.309803,0.075989 -39.666103,0.699982c13.928101,-0.040009 44.968601,0.410004 48.652096,-0.626984c-2.995094,-0.035004 -5.990593,-0.055023 -8.985992,-0.072998zm-25.796505,13.797974c-9.257698,-1.086975 -41.311539,5.276001 -16.546099,2.009003c11.9527,-0.561981 46.801001,-1.457001 16.546099,-2.009003zm19.790401,1.251007c47.587196,10.188995 97.7892,6.175995 146.7052,6.464996c-45.722,-1.02298 -92.049004,2.490021 -137.0149,-5.283997c-3.228798,-0.398987 -6.458199,-0.794983 -9.6903,-1.181l0,0zm-1.772202,0.244019l0.689201,0.138977l-0.689201,-0.138977zm389.605392,5.28299c-79.042999,2.121002 -158.162994,1.612 -237.238998,0.972992c79.055008,1.497009 158.257004,2.578003 237.238998,-0.972992z" stroke-dashoffset="0" stroke-miterlimit="4" marker-end="none" marker-mid="none" marker-start="none" stroke-linejoin="bevel" stroke-linecap="round" stroke-width="4" fill-rule="nonzero" fill="#000000" opacity="0.7"/>
   </g>
   <g id="g4416">
    <path id="path4410" d="m10.2049,384.075989l550.031123,-6.988983l152.45697,-6.619995l3.325989,42.244995l-23.84198,4.819l20.710022,9.773987l2.609985,28.667999l-702.48781,13.609009l0.3738,-12.200989l35.116299,-4.337006l-34.655699,0.682983l0.701801,-34.287994l-2.2519,-17.675995l43.882498,-1.428986l-44.401898,-3.473022l-1.569201,-12.785004l0,0z" stroke-dashoffset="0" stroke-miterlimit="4" marker-end="none" marker-mid="none" marker-start="none" stroke-linejoin="bevel" stroke-linecap="round" stroke-width="4" fill-rule="nonzero" fill="#8f5902"/>
    <path id="path4381" d="m696.393005,380.130005c-45.755005,0.278992 -88.984009,23.923004 -135.832031,16.075989c-47.411987,-4.471985 -96.708984,9.197998 -142.48996,-5.002991c-28.553009,-5.276001 -58.443024,-2.802002 -86.646027,-8.743988l-8.097992,0.11499c15.765015,2.828003 31.52301,5.494995 47.794006,5.307007c27.315002,-2.292999 73.35199,13.001984 87.540985,11.22699c-45.702972,6.516998 -92.585999,12.718994 -138.812988,5.269012c-36.050995,-4.705017 -73.238007,-13.233002 -109.550003,-4.811005c-25.08699,5.54599 -50.324997,11.589996 -76.212997,11.721985c1.059998,0.059998 2.119003,0.131012 3.179001,0.19101c39.358002,2.444 74.300003,-16.205017 113.822998,-14.548004c33.693008,1.247009 66.080002,10.730988 100.111008,10.997009c48.541992,4.643982 95.186981,-10.279999 143.432983,-9.201996c38.798004,3.339996 77.832001,0.119995 116.803986,0.151978c-3.146973,-0.184998 -6.339966,-0.424988 -9.488953,-0.800995c37.761963,-5.520996 75.482971,-22.483002 114.766968,-14.625l-0.148987,-1.794983c-6.788025,-1.119019 -13.508972,-1.568024 -20.171997,-1.527008zm-84.957031,18.747986c5.813049,0.343018 11.582031,0.425018 17.389038,0.268005c-5.794006,-0.181 -11.590027,-0.263 -17.389038,-0.268005zm17.389038,0.268005c2.805969,0.087006 5.641968,0.203003 8.445984,0.343018c17.586975,-0.499023 68.268982,-5.582001 64.786011,-5.498016c-24.445007,0.306 -48.828003,4.493988 -73.231995,5.154999zm-474.866013,-14.43399l-8.048996,0.11499c-5.311996,1.276001 -10.594009,2.600006 -15.848999,3.971008c-38.257301,4.468994 -76.457306,0.742981 -114.667105,-2.330017l-1.987299,0.039001l0.0994,0.802002c43.460201,3.703003 87.216,6.901001 130.167995,0.305023c3.406006,-1.012024 6.832001,-1.984009 10.285004,-2.902008zm389.113998,10.843994c0.267029,-0.006012 0.664001,0.002014 1.242004,0.039001c0.628967,0.334991 0.341003,0.407013 -0.148987,0.381012c14.666992,1.205994 53.677002,2.349976 17.934998,3.169983c-23.169006,0.980011 -58.029999,0.700012 -73.927002,-1.375c18.144989,-0.769989 36.299988,-1.235992 54.451965,-1.908997c0.321045,0.029999 0.838013,0.04599 1.192017,0.075989c-0.807983,-0.10498 -1.75,-0.358002 -0.744995,-0.381989zm-10.184998,4.467987c2.294983,0.021027 -2.494019,0.255005 0,0zm-517.2456,5.269012l0.099298,0.726013c32.9566,0.755981 65.868004,2.346985 98.769302,4.161987c-2.188004,-0.269012 -4.359001,-0.578003 -6.557999,-0.954987c-30.713501,-1.674011 -61.504402,-3.266998 -92.310602,-3.933014l0,0zm99.116602,4.925995c6.410995,0.777008 12.804001,1.093994 19.127991,1.069c-6.373993,-0.359985 -12.750992,-0.71698 -19.127991,-1.069zm468.209015,3.360016c-5.338989,0.001984 -10.658997,0.029999 -15.998047,0.039001c-8.032959,0.013977 -16.062988,0.017975 -24.095947,0.075989c-5.256042,0.049988 -10.516052,0.065002 -15.749023,0.496002c-3.702026,0.372009 -7.387024,0.86499 -10.929993,1.794983c-3.046021,0.792023 -6.208984,1.47702 -8.993011,2.749023c-2.548981,1.231995 -5.057007,2.507996 -7.600983,3.742981c-2.241028,1.184998 -4.504028,2.348022 -6.65802,3.627014c-1.963989,1.018005 -3.915985,2.057983 -5.962006,2.977997c-2.544983,0.957001 -5.108978,1.845001 -7.75,2.63501c-3.498993,1.11499 -7.060974,2.125 -10.631989,3.092987c-3.143005,0.838989 -6.268005,1.763 -9.539001,2.252991c-3.437012,0.411011 -6.932983,0.507019 -10.384003,0.840027c0.924011,0.029999 1.868011,0.009979 2.782013,0.11499c0.033997,0.002991 0.028992,0.035004 0.049988,0.037994c-0.320984,0.010986 -1.579987,-0.036987 -2.087006,-0.037994c-2.975983,-0.009003 -5.966003,-0.053009 -8.942993,-0.076996c-4.591003,-0.042999 -9.174011,-0.080017 -13.761993,-0.229004c-7.022003,-0.222015 -14.032013,-0.622009 -21.065002,-0.458008c-4.201996,0.212006 -8.395996,0.612 -12.570007,1.031006c-4.460999,0.165985 -8.911987,0.385986 -13.363983,0.648987c-0.881012,0.042023 -1.82901,-0.125 -2.634003,0.153015c-0.627014,0.21698 2.720001,0.010986 2.036987,0.075989c-3.03598,0.290009 -6.195007,-0.338989 -9.240997,-0.229004c-5.139008,-0.263 -10.303009,-0.634003 -15.35199,-1.450989c-7.352997,-1.252014 -14.540009,-2.987 -21.562012,-5.07901c-11.075989,-3.414001 -21.981995,-7.151001 -33.187988,-10.30899c-5.768005,-1.660004 -11.684998,-3.015015 -17.687012,-4.085999c-6.225983,-1.194 -12.516998,-2.320007 -18.878998,-2.977997c-5.126984,-0.165009 -10.221008,-0.309998 -15.352005,-0.230011c-3.345993,0.007996 -6.689987,0.039001 -10.035995,0.076996c-3.722992,0.046997 -7.462006,0.093018 -11.179001,0.266998c-3.302994,0.178009 -6.565002,0.484009 -9.83699,0.878021c-3.864014,0.276978 -7.76001,0.196991 -11.625,0.496979c-3.198013,0.233002 -6.417007,0.529022 -9.440002,1.413025c-2.911011,0.669983 -5.863007,1.230988 -8.695007,2.099976c-3.192001,0.669006 -6.319,1.498016 -9.638,1.718018c-3.811996,0.423981 -7.621002,0.93399 -11.47699,1.069c-3.769012,0.278992 -7.530014,0.682007 -11.327011,0.572998c-3.894989,0.024994 -7.783997,0.041992 -11.675995,0.152985c-3.503998,0.119019 -6.999008,0.322998 -10.483002,0.649017c-1.194992,0.104004 -4.791992,0.075989 -3.626999,0.304993c0.194,0.037994 0.399002,0.062012 0.597,0.076996c-2.490997,-0.083008 -4.957001,-0.156982 -2.384995,0c-3.279007,-0.003998 -6.559006,-0.019989 -9.837006,-0.039001c-3.684998,-0.023987 -7.396004,-0.057983 -11.080002,-0.152008c-4.763,-0.129974 -9.508995,-0.298981 -14.258499,-0.610992c-4.798897,-0.303009 -9.587502,-0.585999 -14.407997,-0.496979c-4.324501,-0.051025 -8.6492,-0.105011 -12.967102,-0.305023c-7.1446,-0.341003 -14.313,-0.819977 -21.4132,-1.526978c-8.570801,-0.85202 -17.078199,-1.923004 -25.685999,-2.482025l0.0994,0.839996c6.9734,0.577026 13.900599,1.44101 20.866701,2.138c7.101799,0.713013 14.266899,1.215027 21.4132,1.565002c4.318798,0.206024 8.641399,0.289001 12.967197,0.344025c4.816803,-0.070007 9.611099,0.156982 14.407898,0.457977c4.751106,0.315002 9.4944,0.514008 14.259399,0.649017c3.683006,0.098999 7.393005,0.126007 11.079002,0.152985c3.278,0.020996 6.557999,0.033997 9.836998,0.037994c4.959999,0.046021 9.924004,0.016998 14.855003,-0.419983c3.481995,-0.321014 6.979996,-0.502014 10.483002,-0.610992c3.890991,-0.10202 7.781998,-0.128998 11.675003,-0.152008c3.799988,0.105988 7.554993,-0.338013 11.327988,-0.610992c3.860001,-0.121002 7.661011,-0.692017 11.477005,-1.108002c3.322998,-0.226013 6.434998,-1.098999 9.638,-1.756012c2.802002,-0.944 5.852997,-1.381012 8.744003,-2.100006c3.011993,-0.885986 6.153992,-1.123993 9.341003,-1.337006c3.86499,-0.301971 7.768997,-0.156982 11.625,-0.495972c3.264999,-0.427002 6.584,-0.676025 9.886993,-0.840027c3.716003,-0.162994 7.408005,-0.223999 11.128998,-0.266998c3.346008,-0.035004 6.690002,-0.069977 10.035995,-0.076996c2.147003,-0.003998 4.312012,0.001007 6.459015,0c0.578979,0 2.256989,-0.197998 1.738983,0c-0.67099,0.257019 -1.490997,0.127014 -2.235992,0.19101c6.36499,0.618988 12.653015,1.768005 18.878998,2.940002c5.997009,1.063995 11.862,2.419983 17.638,4.048004c11.208008,3.151001 22.167999,6.848999 33.237,10.272003c7.024017,2.110992 14.208008,3.871002 21.563019,5.153992c5.048981,0.841003 10.205994,1.212006 15.35199,1.48999c6.419006,0.282013 12.858002,0.364014 19.276001,0.037994c4.451996,-0.270996 8.903992,-0.527985 13.36499,-0.687988c3.852997,-0.442993 7.740997,-0.713013 11.626007,-0.915985c4.113007,0.277985 8.458984,0.211975 12.569,0.343994c4.588989,0.151001 9.17099,0.220978 13.763,0.266998c5.872009,0.087006 11.764984,0.061981 17.636993,-0.037994c3.446991,-0.381012 6.957001,-0.443024 10.384003,-0.917023c3.259003,-0.552979 6.393005,-1.432983 9.539001,-2.290985c3.578003,-0.964996 7.128998,-1.976013 10.631989,-3.093018c2.652008,-0.778992 5.247009,-1.718994 7.800018,-2.672974c2,-0.996002 4.011993,-2 5.962006,-3.054016c2.146973,-1.28299 4.404999,-2.457001 6.656982,-3.627991c2.554993,-1.214996 5.044983,-2.485992 7.60199,-3.70401c2.798035,-1.225006 5.921021,-1.868988 8.942017,-2.673004c3.542969,-0.904999 7.236023,-1.406982 10.930969,-1.755981c5.233032,-0.396027 10.496033,-0.373016 15.749023,-0.420013c8.031982,-0.056 16.064026,-0.062988 24.096008,-0.076996c5.338989,-0.007996 10.658997,-0.036011 15.997986,-0.037994c-0.32196,0.048981 -1.138977,0.098999 -1.34198,0.152985c0.005005,0.011017 -0.002014,0.026001 0.049988,0.037994c1.208984,0.289001 2.52301,0.282013 3.776001,0.420013c1.341003,0.14801 2.684021,0.306 4.023987,0.458008c3.868042,0.440979 7.679993,0.912994 11.527039,1.450989c5.563965,0.919006 11.263977,1.317993 16.891968,1.910004c4.669006,0.569 9.346985,0.988007 14.059998,1.26001c3.804016,0.205994 7.61499,0.283997 11.427002,0.342987c3.315002,0.04599 6.621033,0.067017 9.937012,0.076996c5.400024,0.213013 10.732971,-0.406982 16.096985,-0.725983c3.845032,-0.203003 7.713013,-0.197021 11.526001,-0.649017c3.087036,-0.415985 6.213989,-0.658997 9.340027,-0.802002c3.502014,0.002014 6.919983,-0.289001 10.383972,-0.648987c2.999023,-0.513 5.937012,-1.153992 8.794006,-2.024017l-4.719971,-0.457977c-2.856995,0.830994 -5.795044,1.493988 -8.794006,1.947998c-3.460999,0.355988 -6.889038,0.575989 -10.384033,0.610992c-3.127991,0.15799 -6.248962,0.428009 -9.339966,0.839996c-3.812012,0.421997 -7.690002,0.419006 -11.526001,0.649017c-2.082031,0.127991 -4.134033,0.290985 -6.210999,0.457977c-0.598022,0.048004 -2.371033,0.037018 -1.788025,0.153015c0.223022,0.044006 0.416992,0.062988 0.645996,0.075989c-3.083984,-0.007996 -6.157959,-0.037994 -9.240967,-0.075989c-3.811035,-0.054993 -7.624023,-0.109009 -11.427002,-0.306c-4.710999,-0.26001 -9.39502,-0.645996 -14.059998,-1.222015c-5.619995,-0.618988 -11.333008,-0.973999 -16.892029,-1.908997c-9.080017,-1.277985 -18.214966,-2.609009 -27.474976,-2.596985zm-36.368042,4.963989c-15.980957,15.345001 60.686035,15.933014 44.665039,3.70401c-14.894043,-1.597015 -29.911987,-1.395996 -44.665039,-3.70401zm-301.72197,0.039001c-41.431,1.535004 48.805984,-2.14801 14.209,12.752991c-14.487,0.119019 -42.661011,-14.847992 -19.376007,-1.259979c15.938995,9.492981 52.20401,-6.473022 18.233002,-10.844025l-6.507996,-0.572998l-6.557999,-0.075989zm302.715988,0.839996c14.585999,0.299011 68.349976,5.862 25.785034,9.851013c-5.674011,-0.900024 -36.30603,-1.051025 -25.785034,-9.851013zm-529.865093,2.673004l0,0.992004c11.0966,0.78299 22.101398,2.367004 32.939598,5.194c36.254101,7.60498 74.191502,12.152008 111.487507,6.528992c-32.315002,2.020996 -64.967003,2.847015 -96.234909,-5.117004c-15.764797,-3.404999 -31.914497,-6.247986 -48.192196,-7.597992zm144.427105,12.714996c3.821991,-0.238983 7.667999,-0.466003 11.47699,-0.725006c2.055008,-0.350006 4.085007,-0.591003 6.111008,-0.763977c-5.432999,-0.048004 -10.969009,0.340973 -16.643997,1.375c-0.313004,0.047974 -0.631012,0.066986 -0.944,0.113983zm17.587997,-1.488983c30.832001,0.270996 58.377991,15.366974 88.98201,15.694c1.242981,-0.21701 2.481995,-0.437012 3.725983,-0.649017c-31.776001,0.54599 -60.509995,-17.790985 -92.707993,-15.044983zm92.707993,15.044983c4.506012,-0.078003 9.06601,-0.536011 13.712006,-1.48999c1.171997,-0.442993 2.351013,-0.869019 3.527985,-1.26001c-5.751984,0.821991 -11.504974,1.770996 -17.23999,2.75zm428.313995,-25.850983c-30.135986,5.145996 -59.973999,11.095978 -88.882996,19.626984c-36.325989,3.79599 -74.34198,-9.035004 -108.457001,6.605011c-32.597992,0.744995 -65.080994,7.78598 -97.575989,4.315002c-37.878021,-5.650024 -78.063995,-20.012024 -116.009003,-7.484009c29.919983,-4.265015 59.945984,-5.565002 89.179993,4.200012c13.274017,5.440979 70.234009,4.28299 31.052002,7.942993c-12.923004,2.235992 -26.218994,5.039001 -39.647003,7.445984l7.75,-0.152985c27.300018,-5.218018 54.683014,-11.765015 82.970001,-8.362c0.548004,-0.112 1.093018,-0.201996 1.640015,-0.306c-10.567017,-0.200012 -19.02002,-1.569 -15.899017,-2.63501c15.21402,-1.929993 30.576019,-3.024994 46.006012,-2.863007c-1.244995,1.348999 -3.360992,2.399994 -6.061005,3.207001c18.367004,-0.096985 36.40097,3.304016 54.004974,7.790009l4.124023,-0.076996c-16.763977,-3.928009 -41.885986,-7.502014 -36.86499,-13.13501c37.502014,-16.128998 80.646973,2.39801 119.487,-8.897003c24.609985,-6.266998 49.378967,-12.075989 74.573975,-16.571991l-1.390991,-0.648987zm-237.97998,33.830994c8.178986,0.154999 17.628998,-0.397003 23.996979,-2.291016c-7.938995,0.045013 -15.953003,0.761993 -23.996979,2.291016zm-333.221008,-31.769012c0.740997,0.037018 1.492004,-0.048981 2.235001,0c2.522995,0.165009 0.192993,0.080017 -2.235001,0zm-112.183903,15.57901l-0.049601,0.877991c19.175303,0.312988 38.296202,1.915009 57.184698,5.346008c34.1828,7.339996 69.391808,-1.234009 103.538795,4.77301c29.657013,5.911987 61.320007,1.720978 89.925018,11.531982c5.049988,1.639008 10.201996,3.011993 15.401978,4.161987l6.061005,-0.11499c-4.595001,-1.134003 -9.160004,-2.544983 -13.661987,-4.313995c-36.328003,-10.092987 -75.944,-6.677002 -112.929001,-14.471985c-31.916,0.642975 -64.169006,2.987 -95.390808,-3.819c-16.519196,-2.119019 -33.295795,-3.53302 -50.080097,-3.971008zm576.467899,3.513c-2.44397,0.089996 2.526001,0.022003 0,0zm124.653015,12.791992c-6.757019,0.772003 -13.52301,1.53299 -20.27002,2.32901l10.682007,-0.19101c3.22998,-0.359009 6.453003,-0.729004 9.687988,-1.069l-0.099976,-1.069z" stroke-dashoffset="0" stroke-miterlimit="4" marker-end="none" marker-mid="none" marker-start="none" stroke-linejoin="bevel" stroke-linecap="round" stroke-width="4" fill-rule="nonzero" fill="#e9b96e"/>
    <path d="m699.572998,378.90799c-45.755005,0.279022 -88.984009,23.923004 -135.83197,16.076019c-47.412048,-4.472015 -96.709015,9.197998 -142.490021,-5.003021c-28.553009,-5.276001 -58.442993,-2.802002 -86.645996,-8.743988l-8.098999,0.11499c15.765991,2.82901 31.523987,5.494995 47.794983,5.307007c27.315002,-2.292999 73.351013,13.002014 87.541016,11.22699c-45.70401,6.517029 -92.585999,12.719025 -138.813019,5.269012c-36.052002,-4.70401 -73.237991,-13.233002 -109.549988,-4.811005c-25.087997,5.546021 -50.324997,11.589996 -76.214005,11.722992c1.059998,0.060028 2.119995,0.130005 3.180008,0.190002c39.357986,2.444 74.299988,-16.204987 113.822998,-14.547974c33.691986,1.246979 66.078979,10.730988 100.109985,10.996979c48.542023,4.64502 95.187012,-10.279999 143.434021,-9.201996c38.797974,3.341003 77.83197,0.119995 116.804016,0.153015c-3.147034,-0.186005 -6.340027,-0.426025 -9.490051,-0.802002c37.763,-5.520996 75.484009,-22.483002 114.767029,-14.625l-0.148987,-1.795013c-6.788025,-1.118988 -13.507996,-1.567993 -20.171021,-1.527008zm-84.95697,18.749023c5.812988,0.34198 11.58197,0.423981 17.388977,0.266998c-5.794983,-0.181 -11.590027,-0.263 -17.388977,-0.266998zm17.388977,0.266998c2.805969,0.087982 5.640991,0.203003 8.445984,0.342987c17.587036,-0.498993 68.268005,-5.580994 64.786011,-5.497986c-24.445007,0.306 -48.828003,4.493988 -73.231995,5.154999zm-474.867004,-14.434021l-8.048004,0.115021c-5.311996,1.276001 -10.593994,2.599976 -15.848999,3.970978c-38.257599,4.469025 -76.457596,0.743011 -114.667397,-2.328979l-1.987301,0.037994l0.0994,0.802002c43.460197,3.703003 87.215302,6.901001 130.168304,0.304993c3.404999,-1.011993 6.832001,-1.984009 10.283997,-2.902008zm389.11499,10.844025c0.267029,-0.006012 0.663025,0.001984 1.242004,0.038971c0.627991,0.335022 0.341003,0.407013 -0.148987,0.382019c14.666016,1.204987 53.675964,2.348999 17.934998,3.169006c-23.169006,0.97998 -58.031006,0.699982 -73.928009,-1.375c18.146027,-0.77002 36.300995,-1.236023 54.451996,-1.908997c0.322021,0.029999 0.838989,0.04599 1.192993,0.075989c-0.807983,-0.105011 -1.750977,-0.358002 -0.744995,-0.381989zm-10.184998,4.467987c2.294006,0.020996 -2.494995,0.255005 0,0zm-517.245993,5.269989l0.0994,0.725006c32.956598,0.756989 65.867998,2.347015 98.768602,4.162018c-2.187004,-0.269012 -4.359001,-0.577026 -6.557999,-0.95401c-30.712807,-1.675018 -61.503704,-3.268005 -92.310003,-3.933014zm99.117002,4.925018c6.411003,0.776978 12.803001,1.093994 19.127998,1.069977c-6.375,-0.360992 -12.751999,-0.717987 -19.127998,-1.069977zm468.209007,3.360992c-5.338989,0.001007 -10.658997,0.028992 -15.997986,0.037994c-8.03302,0.014008 -16.064026,0.018005 -24.096008,0.075989c-5.257019,0.050018 -10.515991,0.065002 -15.749023,0.497009c-3.703003,0.371002 -7.386963,0.864014 -10.930969,1.794006c-3.045044,0.791992 -6.208008,1.47699 -8.992004,2.75c-2.549011,1.230988 -5.057007,2.506989 -7.60202,3.742004c-2.240997,1.184998 -4.503998,2.347992 -6.657013,3.626984c-1.964996,1.018005 -3.915985,2.058014 -5.961975,2.979004c-2.546021,0.955994 -5.110016,1.845001 -7.751007,2.634003c-3.498016,1.11499 -7.059998,2.125 -10.631989,3.093018c-3.142029,0.838989 -6.268005,1.763 -9.539001,2.252991c-3.436005,0.411011 -6.933014,0.506989 -10.383026,0.839996c0.923004,0.029999 1.867004,0.010986 2.782013,0.11499c0.03299,0.003021 0.028992,0.035004 0.049988,0.038025c-0.320984,0.010986 -1.579987,-0.037018 -2.086975,-0.038025c-2.97702,-0.009003 -5.96701,-0.052979 -8.943024,-0.076996c-4.591003,-0.042999 -9.173981,-0.079987 -13.761993,-0.229004c-7.022003,-0.221985 -14.031982,-0.621979 -21.065002,-0.457977c-4.201996,0.211975 -8.395996,0.612 -12.570007,1.030975c-4.460999,0.166016 -8.911987,0.387024 -13.36499,0.649017c-0.880005,0.041992 -1.82901,-0.125 -2.632996,0.152985c-0.627014,0.21701 2.720001,0.011017 2.036987,0.076019c-3.03598,0.289978 -6.195984,-0.33902 -9.240997,-0.229004c-5.139984,-0.263 -10.303986,-0.634003 -15.35199,-1.451019c-7.352997,-1.250977 -14.540009,-2.987 -21.562012,-5.077972c-11.075989,-3.415009 -21.981995,-7.152008 -33.187988,-10.310028c-5.768005,-1.659973 -11.686005,-3.014984 -17.687012,-4.085999c-6.225983,-1.194 -12.516998,-2.319977 -18.879974,-2.977997c-5.126007,-0.164978 -10.221008,-0.309998 -15.351013,-0.22998c-3.347,0.009003 -6.690002,0.039978 -10.035995,0.076996c-3.723007,0.046997 -7.462006,0.092987 -11.179001,0.266998c-3.303009,0.178009 -6.565002,0.484009 -9.837006,0.877991c-3.863998,0.277008 -7.761002,0.196991 -11.626007,0.497009c-3.196991,0.233002 -6.415985,0.528992 -9.438995,1.412994c-2.912003,0.670013 -5.862991,1.230988 -8.694992,2.100006c-3.193008,0.669006 -6.320007,1.497986 -9.638,1.717987c-3.813004,0.424011 -7.621002,0.934998 -11.477005,1.069c-3.768997,0.279022 -7.531006,0.682007 -11.328003,0.572998c-3.893997,0.025024 -7.78299,0.042023 -11.675003,0.153015c-3.50499,0.118988 -6.998993,0.322998 -10.482986,0.648987c-1.195007,0.104004 -4.792007,0.076019 -3.627014,0.305023c0.193008,0.038971 0.39801,0.061981 0.596008,0.076996c-2.490005,-0.083008 -4.955994,-0.157013 -2.384995,0c-3.278,-0.003998 -6.558006,-0.019012 -9.837006,-0.038025c-3.684998,-0.024994 -7.396004,-0.05899 -11.079002,-0.152985c-4.763,-0.130005 -9.508995,-0.299011 -14.258797,-0.610992c-4.798904,-0.303009 -9.587601,-0.585999 -14.408005,-0.497009c-4.324501,-0.050995 -8.6493,-0.105011 -12.967194,-0.304993c-7.144501,-0.341003 -14.312904,-0.820007 -21.413204,-1.527008c-8.570698,-0.85199 -17.078098,-1.923004 -25.6859,-2.481995l0.0994,0.839996c6.973301,0.576996 13.900602,1.44101 20.866701,2.138c7.101799,0.713013 14.266899,1.214996 21.4132,1.56601c4.318802,0.204987 8.641396,0.287994 12.967201,0.342987c4.816795,-0.070007 9.611099,0.157013 14.407898,0.458008c4.751099,0.315002 9.494698,0.514008 14.258698,0.649994c3.684006,0.097992 7.394005,0.126007 11.079002,0.152008c3.278999,0.020996 6.558998,0.033997 9.837997,0.039001c4.959,0.044983 9.923996,0.015991 14.854996,-0.421021c3.48201,-0.320984 6.980011,-0.501984 10.483002,-0.609985c3.891006,-0.10199 7.781998,-0.130005 11.675003,-0.153015c3.800003,0.106018 7.555008,-0.337982 11.328003,-0.610992c3.860001,-0.121002 7.660995,-0.691986 11.475998,-1.108002c3.324005,-0.225983 6.436005,-1.098999 9.639008,-1.755981c2.801987,-0.944 5.852997,-1.381012 8.743988,-2.100006c3.012009,-0.886017 6.154007,-1.123993 9.340012,-1.337006c3.86499,-0.302002 7.769989,-0.157013 11.625992,-0.496002c3.264999,-0.427002 6.584,-0.675995 9.887009,-0.839996c3.715988,-0.162994 7.40799,-0.223999 11.128998,-0.266998c3.345001,-0.035004 6.690002,-0.069 10.036011,-0.076996c2.145996,-0.003998 4.311981,0.001007 6.457977,0c0.57901,0 2.257996,-0.197998 1.739014,0c-0.671021,0.256989 -1.490021,0.126984 -2.235016,0.190979c6.365021,0.619019 12.652008,1.768005 18.878998,2.940002c5.997009,1.063995 11.862,2.420013 17.637024,4.048004c11.207977,3.151001 22.168976,6.848999 33.237976,10.272003c7.024017,2.110992 14.208008,3.871002 21.562012,5.154999c5.049011,0.839996 10.207001,1.212006 15.35199,1.489014c6.419006,0.281982 12.858002,0.363983 19.277008,0.037994c4.451996,-0.270996 8.903992,-0.528015 13.36499,-0.687012c3.853027,-0.444 7.740997,-0.713989 11.625,-0.916992c4.113007,0.278015 8.460022,0.212006 12.570007,0.343994c4.588013,0.151001 9.170013,0.221008 13.761993,0.266998c5.873016,0.087006 11.766022,0.062012 17.638,-0.037994c3.446014,-0.381012 6.957001,-0.442993 10.383026,-0.916992c3.259979,-0.553009 6.393982,-1.433014 9.538971,-2.291016c3.57901,-0.963989 7.130005,-1.975983 10.632019,-3.092987c2.652985,-0.778992 5.247009,-1.718994 7.800995,-2.671997c2,-0.997009 4.011993,-2.001007 5.960999,-3.054993c2.14801,-1.28302 4.406006,-2.457001 6.65799,-3.628021c2.554016,-1.213989 5.044983,-2.485992 7.601013,-3.703979c2.797974,-1.225006 5.921997,-1.869019 8.942993,-2.673004c3.541992,-0.904999 7.236023,-1.407013 10.929993,-1.756012c5.234009,-0.395996 10.496033,-0.372986 15.75,-0.419983c8.032043,-0.055023 16.062988,-0.063019 24.096008,-0.076019c5.338989,-0.009003 10.658997,-0.036987 15.997986,-0.039001c-0.32196,0.049011 -1.138977,0.098999 -1.34198,0.153015c0.005005,0.010986 -0.002014,0.026001 0.049988,0.037994c1.208008,0.289001 2.52301,0.282013 3.776001,0.419983c1.341003,0.14801 2.684021,0.306 4.023987,0.459015c3.868042,0.440002 7.680054,0.912994 11.526001,1.450989c5.565002,0.917999 11.265015,1.317017 16.892029,1.908997c4.669006,0.569 9.348022,0.988007 14.060974,1.26001c3.804016,0.205994 7.614014,0.283997 11.427002,0.343994c3.315002,0.045013 6.621033,0.06601 9.936035,0.076019c5.401001,0.212982 10.734009,-0.407013 16.096985,-0.726013c3.846008,-0.201996 7.713989,-0.196991 11.526978,-0.648987c3.087036,-0.416016 6.21405,-0.658997 9.340027,-0.802002c3.502014,0.001984 6.919983,-0.289001 10.383972,-0.649017c2.998047,-0.513 5.937012,-1.153992 8.794006,-2.023987l-4.719971,-0.458008c-2.856995,0.830994 -5.795044,1.494019 -8.794006,1.947998c-3.460999,0.356018 -6.889038,0.576019 -10.384033,0.610992c-3.127991,0.15802 -6.248962,0.428009 -9.339966,0.840027c-3.812012,0.421997 -7.690002,0.418976 -11.527039,0.648987c-2.080994,0.127991 -4.132996,0.291016 -6.209961,0.458008c-0.598022,0.048004 -2.371033,0.036987 -1.788025,0.152985c0.223022,0.044006 0.416992,0.063019 0.645996,0.076019c-3.083984,-0.007996 -6.158997,-0.038025 -9.242004,-0.076019c-3.809998,-0.054993 -7.622986,-0.108978 -11.425964,-0.306c-4.710999,-0.259979 -9.39502,-0.645996 -14.061035,-1.221985c-5.618958,-0.619019 -11.33197,-0.973999 -16.891968,-1.908997c-9.078979,-1.277008 -18.215027,-2.609009 -27.473999,-2.596008zm-36.367981,4.963989c-15.981018,15.343994 60.684998,15.932007 44.664978,3.703003c-14.893982,-1.596985 -29.911987,-1.395996 -44.664978,-3.703003zm-301.722031,0.037994c-41.431,1.535004 48.806015,-2.146973 14.209,12.753021c-14.487,0.118988 -42.662003,-14.847992 -19.375992,-1.26001c15.93898,9.493988 52.203995,-6.472992 18.232986,-10.843994l-6.507996,-0.572998l-6.557999,-0.076019zm302.715988,0.840027c14.585999,0.298981 68.348999,5.862 25.785034,9.850983c-5.674011,-0.899994 -36.307007,-1.050995 -25.785034,-9.850983zm-529.865286,2.672974l0,0.993011c11.096598,0.78299 22.1014,2.365997 32.9396,5.192993c36.254101,7.605011 74.191692,12.152008 111.487698,6.529022c-32.315002,2.020996 -64.966995,2.846985 -96.235199,-5.117004c-15.764698,-3.404999 -31.914398,-6.248016 -48.192099,-7.598022l0,0zm144.427298,12.715027c3.822006,-0.239014 7.667007,-0.466003 11.477005,-0.725006c2.054001,-0.350006 4.084991,-0.591003 6.110992,-0.764008c-5.432999,-0.048004 -10.968994,0.341003 -16.643997,1.375c-0.313004,0.048004 -0.630997,0.066986 -0.944,0.114014zm17.587997,-1.489014c30.832001,0.272003 58.378006,15.367004 88.981003,15.694c1.243011,-0.21701 2.481995,-0.437012 3.726013,-0.648987c-31.775009,0.54599 -60.509018,-17.791016 -92.707016,-15.045013zm92.707016,15.045013c4.506989,-0.078003 9.065979,-0.536011 13.712982,-1.489014c1.171997,-0.444 2.351013,-0.869995 3.527008,-1.260986c-5.751007,0.821991 -11.505005,1.770996 -17.23999,2.75zm428.313995,-25.851013c-30.135986,5.145996 -59.973022,11.096008 -88.882019,19.627014c-36.325989,3.79599 -74.34198,-9.035004 -108.457001,6.605988c-32.597992,0.743988 -65.080994,7.785004 -97.576996,4.313995c-37.876984,-5.649994 -78.062988,-20.011993 -116.009003,-7.484009c29.921021,-4.264984 59.947021,-5.565002 89.181,4.201019c13.274017,5.440002 70.234009,4.281982 31.051025,7.941986c-12.923004,2.235992 -26.218018,5.039001 -39.646027,7.446014l7.75,-0.153015c27.300018,-5.217987 54.682007,-11.763977 82.970001,-8.362c0.546997,-0.112 1.093018,-0.201996 1.640015,-0.306c-10.567017,-0.199982 -19.019989,-1.569 -15.899017,-2.634003c15.213013,-1.931 30.576019,-3.026001 46.006012,-2.863983c-1.244995,1.348999 -3.362,2.399994 -6.061005,3.207001c18.367035,-0.097015 36.399994,3.303986 54.005035,7.789978l4.123962,-0.075989c-16.763977,-3.928986 -41.886993,-7.502991 -36.86499,-13.135986c37.502014,-16.128998 80.645996,2.39798 119.487,-8.897003c24.609985,-6.266998 49.379028,-12.076019 74.572998,-16.572021l-1.390991,-0.648987zm-237.979004,33.830994c8.178009,0.154999 17.628998,-0.397003 23.996002,-2.290985c-7.938019,0.044983 -15.951996,0.761993 -23.996002,2.290985zm-333.222,-31.768982c0.741989,0.036987 1.492996,-0.049011 2.235992,0c2.522003,0.164978 0.192001,0.079987 -2.235992,0zm-112.183104,15.578979l-0.049601,0.878021c19.175301,0.312988 38.2962,1.914978 57.184601,5.345978c34.183098,7.339996 69.391106,-1.233978 103.538094,4.77301c29.658005,5.911987 61.320999,1.721008 89.92601,11.532013c5.049988,1.638977 10.201996,3.011993 15.402008,4.161987l6.060974,-0.11499c-4.594971,-1.134003 -9.16098,-2.544006 -13.662994,-4.313995c-36.327988,-10.093018 -75.942993,-6.677002 -112.927994,-14.472015c-31.916992,0.643005 -64.168999,2.987 -95.390999,-3.819c-16.519199,-2.118988 -33.295898,-3.53299 -50.080099,-3.971008zm576.467115,3.513c-2.444031,0.089996 2.526978,0.022003 0,0zm124.653992,12.792023c-6.757996,0.771973 -13.523987,1.53299 -20.270996,2.328979l10.682007,-0.190979c3.22998,-0.359009 6.453979,-0.729004 9.687988,-1.069l-0.098999,-1.069z" id="path4414" stroke-dashoffset="0" stroke-miterlimit="4" marker-end="none" marker-mid="none" marker-start="none" stroke-linejoin="bevel" stroke-linecap="round" stroke-width="4" fill-rule="nonzero" fill="#000000" opacity="0.7"/>
   </g>
   <g id="g2596">
    <path d="m392.326996,231.712006a5.3033,6.01041 0 1 1 -10.606995,0a5.3033,6.01041 0 1 1 10.606995,0z" id="path2785" stroke-dashoffset="0" stroke-miterlimit="4" marker-end="none" marker-mid="none" marker-start="none" stroke-linejoin="bevel" stroke-linecap="round" stroke-width="4" fill-rule="nonzero" fill="url(#linearGradient2793)" opacity="0.7"/>
    <path d="m390.75,231.487a3.875,4.5 0 1 1 -7.75,0a3.875,4.5 0 1 1 7.75,0z" id="path2795" stroke-dashoffset="0" stroke-miterlimit="4" marker-end="none" marker-mid="none" marker-start="none" stroke-linejoin="bevel" stroke-linecap="round" stroke-width="4" fill-rule="nonzero" fill="#babdb6"/>
    <path id="path2591" d="m390.312988,229.563004c0.110016,0.416992 0.187012,0.852997 0.187012,1.311996c0,2.483994 -1.735992,4.5 -3.875,4.5c-1.505005,0 -2.79599,-1.013 -3.437012,-2.468994c0.47702,1.855988 1.934021,3.218994 3.687012,3.218994c2.139008,0 3.875,-2.016006 3.875,-4.5c0,-0.742996 -0.161987,-1.444 -0.437012,-2.061996z" stroke-dashoffset="0" stroke-miterlimit="4" marker-end="none" marker-mid="none" marker-start="none" stroke-linejoin="bevel" stroke-linecap="round" stroke-width="4" fill-rule="nonzero" fill="#555753"/>
   </g>
   <g id="g2601">
    <path id="path2603" d="m391.826996,354.462006a5.3033,6.01041 0 1 1 -10.606995,0a5.3033,6.01041 0 1 1 10.606995,0z" stroke-dashoffset="0" stroke-miterlimit="4" marker-end="none" marker-mid="none" marker-start="none" stroke-linejoin="bevel" stroke-linecap="round" stroke-width="4" fill-rule="nonzero" fill="url(#linearGradient2752)" opacity="0.7"/>
    <path id="path2605" d="m390.25,354.237a3.875,4.5 0 1 1 -7.75,0a3.875,4.5 0 1 1 7.75,0z" stroke-dashoffset="0" stroke-miterlimit="4" marker-end="none" marker-mid="none" marker-start="none" stroke-linejoin="bevel" stroke-linecap="round" stroke-width="4" fill-rule="nonzero" fill="#babdb6"/>
    <path d="m389.812988,352.312988c0.110016,0.417023 0.187012,0.852997 0.187012,1.312012c0,2.484009 -1.735992,4.5 -3.875,4.5c-1.505005,0 -2.79599,-1.013 -3.437012,-2.468994c0.47702,1.855988 1.934021,3.218994 3.687012,3.218994c2.139008,0 3.875,-2.015991 3.875,-4.5c0,-0.743011 -0.161987,-1.444 -0.437012,-2.062012z" id="path2607" stroke-dashoffset="0" stroke-miterlimit="4" marker-end="none" marker-mid="none" marker-start="none" stroke-linejoin="bevel" stroke-linecap="round" stroke-width="4" fill-rule="nonzero" fill="#555753"/>
   </g>
   <g id="g2611">
    <path d="m389.576996,303.962006a5.3033,6.01041 0 1 1 -10.606995,0a5.3033,6.01041 0 1 1 10.606995,0z" id="path2613" stroke-dashoffset="0" stroke-miterlimit="4" marker-end="none" marker-mid="none" marker-start="none" stroke-linejoin="bevel" stroke-linecap="round" stroke-width="4" fill-rule="nonzero" fill="url(#linearGradient2754)" opacity="0.7"/>
    <path d="m388,303.737a3.875,4.5 0 1 1 -7.75,0a3.875,4.5 0 1 1 7.75,0z" id="path2615" stroke-dashoffset="0" stroke-miterlimit="4" marker-end="none" marker-mid="none" marker-start="none" stroke-linejoin="bevel" stroke-linecap="round" stroke-width="4" fill-rule="nonzero" fill="#babdb6"/>
    <path id="path2617" d="m387.562988,301.812988c0.110016,0.416992 0.187012,0.853027 0.187012,1.312012c0,2.484009 -1.735992,4.5 -3.875,4.5c-1.505005,0 -2.79599,-1.013 -3.437012,-2.468994c0.47702,1.855988 1.934021,3.218994 3.687012,3.218994c2.139008,0 3.875,-2.015991 3.875,-4.5c0,-0.742981 -0.161987,-1.444 -0.437012,-2.062012z" stroke-dashoffset="0" stroke-miterlimit="4" marker-end="none" marker-mid="none" marker-start="none" stroke-linejoin="bevel" stroke-linecap="round" stroke-width="4" fill-rule="nonzero" fill="#555753"/>
   </g>
   <g id="g2621">
    <path id="path2623" d="m389.576996,303.962006a5.3033,6.01041 0 1 1 -10.606995,0a5.3033,6.01041 0 1 1 10.606995,0z" stroke-dashoffset="0" stroke-miterlimit="4" marker-end="none" marker-mid="none" marker-start="none" stroke-linejoin="bevel" stroke-linecap="round" stroke-width="4" fill-rule="nonzero" fill="url(#linearGradient2619)" opacity="0.7"/>
    <path id="path2625" d="m388,303.737a3.875,4.5 0 1 1 -7.75,0a3.875,4.5 0 1 1 7.75,0z" stroke-dashoffset="0" stroke-miterlimit="4" marker-end="none" marker-mid="none" marker-start="none" stroke-linejoin="bevel" stroke-linecap="round" stroke-width="4" fill-rule="nonzero" fill="#babdb6"/>
    <path d="m387.562988,301.812988c0.110016,0.416992 0.187012,0.853027 0.187012,1.312012c0,2.484009 -1.735992,4.5 -3.875,4.5c-1.505005,0 -2.79599,-1.013 -3.437012,-2.468994c0.47702,1.855988 1.934021,3.218994 3.687012,3.218994c2.139008,0 3.875,-2.015991 3.875,-4.5c0,-0.742981 -0.161987,-1.444 -0.437012,-2.062012z" id="path2627" stroke-dashoffset="0" stroke-miterlimit="4" marker-end="none" marker-mid="none" marker-start="none" stroke-linejoin="bevel" stroke-linecap="round" stroke-width="4" fill-rule="nonzero" fill="#555753"/>
   </g>
   <g id="g2629">
    <path d="m391.826996,354.462006a5.3033,6.01041 0 1 1 -10.606995,0a5.3033,6.01041 0 1 1 10.606995,0z" id="path2631" stroke-dashoffset="0" stroke-miterlimit="4" marker-end="none" marker-mid="none" marker-start="none" stroke-linejoin="bevel" stroke-linecap="round" stroke-width="4" fill-rule="nonzero" fill="url(#linearGradient2609)" opacity="0.7"/>
    <path d="m390.25,354.237a3.875,4.5 0 1 1 -7.75,0a3.875,4.5 0 1 1 7.75,0z" id="path2633" stroke-dashoffset="0" stroke-miterlimit="4" marker-end="none" marker-mid="none" marker-start="none" stroke-linejoin="bevel" stroke-linecap="round" stroke-width="4" fill-rule="nonzero" fill="#babdb6"/>
    <path id="path2635" d="m389.812988,352.312988c0.110016,0.417023 0.187012,0.852997 0.187012,1.312012c0,2.484009 -1.735992,4.5 -3.875,4.5c-1.505005,0 -2.79599,-1.013 -3.437012,-2.468994c0.47702,1.855988 1.934021,3.218994 3.687012,3.218994c2.139008,0 3.875,-2.015991 3.875,-4.5c0,-0.743011 -0.161987,-1.444 -0.437012,-2.062012z" stroke-dashoffset="0" stroke-miterlimit="4" marker-end="none" marker-mid="none" marker-start="none" stroke-linejoin="bevel" stroke-linecap="round" stroke-width="4" fill-rule="nonzero" fill="#555753"/>
   </g>
   <g id="g2643">
    <path d="m391.326996,393.962006a5.3033,6.01041 0 1 1 -10.606995,0a5.3033,6.01041 0 1 1 10.606995,0z" id="path2645" stroke-dashoffset="0" stroke-miterlimit="4" marker-end="none" marker-mid="none" marker-start="none" stroke-linejoin="bevel" stroke-linecap="round" stroke-width="4" fill-rule="nonzero" fill="url(#linearGradient2651)" opacity="0.7"/>
    <path d="m389.75,393.737a3.875,4.5 0 1 1 -7.75,0a3.875,4.5 0 1 1 7.75,0z" id="path2647" stroke-dashoffset="0" stroke-miterlimit="4" marker-end="none" marker-mid="none" marker-start="none" stroke-linejoin="bevel" stroke-linecap="round" stroke-width="4" fill-rule="nonzero" fill="#babdb6"/>
    <path id="path2649" d="m389.312988,391.812988c0.110016,0.417023 0.187012,0.852997 0.187012,1.312012c0,2.484009 -1.735992,4.5 -3.875,4.5c-1.505005,0 -2.79599,-1.013 -3.437012,-2.468994c0.47702,1.855988 1.934021,3.218994 3.687012,3.218994c2.139008,0 3.875,-2.015991 3.875,-4.5c0,-0.743011 -0.161987,-1.444 -0.437012,-2.062012z" stroke-dashoffset="0" stroke-miterlimit="4" marker-end="none" marker-mid="none" marker-start="none" stroke-linejoin="bevel" stroke-linecap="round" stroke-width="4" fill-rule="nonzero" fill="#555753"/>
   </g>
   <g id="g2653">
    <path id="path2655" d="m388.576996,442.462006a5.3033,6.01041 0 1 1 -10.606995,0a5.3033,6.01041 0 1 1 10.606995,0z" stroke-dashoffset="0" stroke-miterlimit="4" marker-end="none" marker-mid="none" marker-start="none" stroke-linejoin="bevel" stroke-linecap="round" stroke-width="4" fill-rule="nonzero" fill="url(#linearGradient2661)" opacity="0.7"/>
    <path id="path2657" d="m387,442.237a3.875,4.5 0 1 1 -7.75,0a3.875,4.5 0 1 1 7.75,0z" stroke-dashoffset="0" stroke-miterlimit="4" marker-end="none" marker-mid="none" marker-start="none" stroke-linejoin="bevel" stroke-linecap="round" stroke-width="4" fill-rule="nonzero" fill="#babdb6"/>
    <path d="m386.562988,440.312988c0.110016,0.417023 0.187012,0.852997 0.187012,1.312012c0,2.484009 -1.735992,4.5 -3.875,4.5c-1.505005,0 -2.79599,-1.013 -3.437012,-2.468994c0.47702,1.855988 1.934021,3.218994 3.687012,3.218994c2.139008,0 3.875,-2.015991 3.875,-4.5c0,-0.743011 -0.161987,-1.444 -0.437012,-2.062012z" id="path2659" stroke-dashoffset="0" stroke-miterlimit="4" marker-end="none" marker-mid="none" marker-start="none" stroke-linejoin="bevel" stroke-linecap="round" stroke-width="4" fill-rule="nonzero" fill="#555753"/>
   </g>
   <g id="g2663">
    <path id="path2665" d="m398.337006,272.723999a5.3033,6.01041 0 1 1 -10.606995,0a5.3033,6.01041 0 1 1 10.606995,0z" stroke-dashoffset="0" stroke-miterlimit="4" marker-end="none" marker-mid="none" marker-start="none" stroke-linejoin="bevel" stroke-linecap="round" stroke-width="4" fill-rule="nonzero" fill="url(#linearGradient2671)" opacity="0.7"/>
    <path id="path2667" d="m396.76001,272.498993a3.875,4.5 0 1 1 -7.75,0a3.875,4.5 0 1 1 7.75,0z" stroke-dashoffset="0" stroke-miterlimit="4" marker-end="none" marker-mid="none" marker-start="none" stroke-linejoin="bevel" stroke-linecap="round" stroke-width="4" fill-rule="nonzero" fill="#babdb6"/>
    <path d="m396.322998,270.575012c0.110016,0.416992 0.187012,0.852966 0.187012,1.311981c0,2.484009 -1.736023,4.5 -3.875,4.5c-1.503998,0 -2.795013,-1.011993 -3.437012,-2.468994c0.477997,1.856995 1.93399,3.218994 3.687012,3.218994c2.138977,0 3.875,-2.015991 3.875,-4.5c0,-0.743011 -0.162018,-1.444 -0.437012,-2.061981z" id="path2669" stroke-dashoffset="0" stroke-miterlimit="4" marker-end="none" marker-mid="none" marker-start="none" stroke-linejoin="bevel" stroke-linecap="round" stroke-width="4" fill-rule="nonzero" fill="#555753"/>
   </g>
   <g id="svg_6">
    <path d="m9.6983,481.221985c205.331698,-4.623993 415.517703,-5.690979 620.706729,-15.392975l79.21698,-0.368011l7.531006,42.299988c-1.019043,-18.836975 -56.231995,7.196045 -1.02002,15.722046l-3.39801,52.328003l-181.987,8.345947l-517.936285,7.416992l3.034199,-60.942017c19.058802,-2.415955 15.654501,-9.289917 -3.274399,-19.246948l-2.8732,-30.163025l0,0z" stroke-dashoffset="0" stroke-miterlimit="4" marker-end="none" marker-mid="none" marker-start="none" stroke-linejoin="bevel" stroke-linecap="round" stroke-width="4" fill-rule="nonzero" fill="#8f5902" id="svg_7"/>
    <path d="m707.679016,468.039001c-38.119995,3.700989 -75.887024,9.710999 -113.80304,14.72699c38.373047,-1.895996 75.699036,-11.191986 114.001038,-13.665985l-0.197998,-1.061005zm-123.455994,16.804993l-4.89801,0.687012l4.89801,-0.687012l0,0zm-5.890015,0.841003c-93.128021,6.886993 -186.173004,16.783997 -279.636017,18.588013c-87.978989,-3.559998 -175.873993,-9.348022 -263.962692,-10.071014c-13.289299,-1.171997 -33.129909,-0.497009 -7.867498,0.243011c84.055197,2.748993 168.145193,5.075989 252.043203,10.511993c77.292999,1.565002 154.131989,-7.875 231.136017,-12.320007c22.815979,-1.860992 45.60199,-4.074005 68.286987,-6.951996zm135.286987,15.876007c-10.442017,-1.048004 -2.825012,3.436005 0,0zm-11.286987,0.928009c-122.280029,9.658997 -245.001007,13.552002 -367.713013,14.850952c-12.276001,0.285034 -59.463989,2.004028 -25.708984,1.243042c130.019989,-2.408997 260.419006,-3.578979 389.867981,-14.970001c1.184998,-0.373993 2.369019,-0.748993 3.554016,-1.123993zm-575.352005,11.013c-35.385902,0.644958 -70.742504,2.468994 -105.982702,5.394958c35.566301,-0.793945 71.014997,-4.593018 106.594702,-4.901978l-0.612,-0.492981l0,0zm6.386002,0.752014c22.259003,2 71.087997,4.557007 76.603989,4.054932c-25.535995,-1.328003 -51.014999,-3.652954 -76.603989,-4.054932zm145.829987,4.156982c-10.388,-0.283997 -51.621994,0.676025 -20.356995,0.845947c1.714996,0.195068 40.225006,-0.527954 20.356995,-0.845947zm-54.500992,0.265015l5.464996,0.286987l-5.464996,-0.286987l0,0zm-198.698,8.357971c55.468302,6.434998 111.539003,8.776001 167.293001,13.074036c114.249008,7.596924 228.719986,13.393982 343.312027,13.903931c-170.559021,-2.180969 -340.725021,-13.950928 -510.605028,-26.977966l0,0zm363.189989,0.442993c-5.543976,0.633972 15.133026,0.074036 0,0zm5.446014,0.354004c10.964996,0.421997 59.837006,6.970032 27.498993,5.619995c-20.923981,-0.437988 -41.906982,-0.493958 -62.725983,-2.638c13.259979,-2.213989 34.376984,-4.130005 8.652985,-2.635986c-19.786987,1.881958 -39.618988,3.968994 -59.552002,3.801025c61.289001,1.86499 123.171997,-1.373047 183.770996,8.682983c68.281982,2.838013 138.325989,-6.583984 204.768005,12.077026c30.744995,3.948975 -22.770996,-7.38501 -33.487,-7.466064c-26.638,-7.762939 19.622986,-7.54895 28.231018,-9.417969c29.260986,-3.830017 -15.42804,0.574951 -24.720032,1.782959c-58.711975,5.683044 -117.666992,-2.72998 -176.530975,-2.003967c-32.141998,-0.221008 -63.798004,-6.721985 -95.906006,-7.802002zm219.587006,13.312012c-3.583008,-2.39502 -1.005005,2.223999 0,0zm-279.632019,-9.55304c4.930023,0.079041 -4.929993,0.079041 0,0zm-25.839996,0.044067l-0.791992,0.088989l0.791992,-0.088989zm0.149017,0.662964l0.543976,0l-0.543976,0zm372.149963,2.653992c2.694031,0.169983 1.241028,0.074036 0,0zm-217.507965,0.398987c34.915985,1.534058 69.907013,1.491028 104.792999,3.626038c-34.841003,3.830017 -70.412018,2.809021 -104.792999,-3.626038zm127.712982,3.671021c8.002014,0.348022 -7.156982,0.179993 0,0zm24.057007,1.281006c10.957031,-2.687012 0.864014,3.283997 0,0zm-54.35199,13.578003c-13.212036,-0.166016 -25.210999,0.643982 -4.971985,0.645996c51.927002,0.859009 103.809998,3.407959 155.751953,3.598999c-50.294006,-0.382996 -100.472961,-4.338013 -150.779968,-4.244995zm-378.63501,2.874023c-20.459,0.732971 -64.777,-0.413025 -70.096001,0.615967c100.817009,-2.294983 201.323997,6.645996 301.525993,15.202026c50.320007,2.541016 100.742004,1.948975 151.11499,1.651001c-42.708984,-1.607056 -85.652985,1.22699 -128.413971,-1.590027c-84.848999,-3.627991 -169.065002,-16.098999 -254.131012,-15.878967zm382.544983,17.468994c-4.224976,1.39502 4.321045,-0.447998 0,0zm-1.138,0.531006c-34.338989,8.179993 -70.161987,7.389954 -105.38797,8.180969c35.192993,-0.429993 71.553986,2.414001 105.38797,-8.180969zm-495.804581,-17.911987c-11.014,0.461914 -43.548399,0.097961 -39.884701,0.891968c14.005001,-0.051025 45.216702,0.521973 48.920399,-0.797974c-3.011597,-0.044067 -6.023697,-0.070068 -9.035698,-0.093994zm-25.938599,17.557983c-9.308701,-1.383057 -41.539251,6.712952 -16.6373,2.555969c12.018599,-0.716003 47.059,-1.854004 16.6373,-2.555969zm19.899498,1.59198c47.849701,12.963989 98.328697,7.856995 147.513695,8.226013c-45.973999,-1.302002 -92.555992,3.166992 -137.769997,-6.724976c-3.246696,-0.506042 -6.493797,-1.01001 -9.743698,-1.501038zm-1.782097,0.309021l0.693001,0.177979l-0.693001,-0.177979zm391.752792,6.723999c-79.479004,2.697998 -159.033997,2.050964 -238.54599,1.237976c79.490997,1.903992 159.128998,3.280029 238.54599,-1.237976z" stroke-dashoffset="0" stroke-miterlimit="4" marker-end="none" marker-mid="none" marker-start="none" stroke-linejoin="bevel" stroke-linecap="round" stroke-width="4" fill-rule="nonzero" fill="#e9b96e" id="svg_8"/>
    <path d="m707.679016,468.039001c-38.119995,3.700989 -75.887024,9.710999 -113.80304,14.72699c38.373047,-1.895996 75.699036,-11.191986 114.001038,-13.665985l-0.197998,-1.061005zm-123.455994,16.804993l-4.89801,0.687012l4.89801,-0.687012l0,0zm-5.890015,0.841003c-93.128021,6.886993 -186.173004,16.783997 -279.636017,18.588013c-87.978989,-3.559998 -175.873993,-9.348022 -263.962692,-10.071014c-13.289299,-1.171997 -33.129909,-0.497009 -7.867498,0.243011c84.055197,2.748993 168.145193,5.075989 252.043203,10.511993c77.292999,1.565002 154.131989,-7.875 231.136017,-12.320007c22.815979,-1.860992 45.60199,-4.074005 68.286987,-6.951996zm135.286987,15.876007c-10.442017,-1.048004 -2.825012,3.436005 0,0zm-11.286987,0.928009c-122.280029,9.658997 -245.001007,13.552002 -367.713013,14.850952c-12.276001,0.285034 -59.463989,2.004028 -25.708984,1.243042c130.019989,-2.408997 260.419006,-3.578979 389.867981,-14.970001c1.184998,-0.373993 2.369019,-0.748993 3.554016,-1.123993zm-575.352005,11.013c-35.385902,0.644958 -70.742504,2.468994 -105.982702,5.394958c35.566301,-0.793945 71.014997,-4.593018 106.594702,-4.901978l-0.612,-0.492981l0,0zm6.386002,0.752014c22.259003,2 71.087997,4.557007 76.603989,4.054932c-25.535995,-1.328003 -51.014999,-3.652954 -76.603989,-4.054932zm145.829987,4.156982c-10.388,-0.283997 -51.621994,0.676025 -20.356995,0.845947c1.714996,0.195068 40.225006,-0.527954 20.356995,-0.845947zm-54.500992,0.265015l5.464996,0.286987l-5.464996,-0.286987l0,0zm-198.698,8.357971c55.468302,6.434998 111.539003,8.776001 167.293001,13.074036c114.249008,7.596924 228.719986,13.393982 343.312027,13.903931c-170.559021,-2.180969 -340.725021,-13.950928 -510.605028,-26.977966l0,0zm363.189989,0.442993c-5.543976,0.633972 15.133026,0.074036 0,0zm5.446014,0.354004c10.964996,0.421997 59.837006,6.970032 27.498993,5.619995c-20.923981,-0.437988 -41.906982,-0.493958 -62.725983,-2.638c13.259979,-2.213989 34.376984,-4.130005 8.652985,-2.635986c-19.786987,1.881958 -39.618988,3.968994 -59.552002,3.801025c61.289001,1.86499 123.171997,-1.373047 183.770996,8.682983c68.281982,2.838013 138.325989,-6.583984 204.768005,12.077026c30.744995,3.948975 -22.770996,-7.38501 -33.487,-7.466064c-26.638,-7.762939 19.622986,-7.54895 28.231018,-9.417969c29.260986,-3.830017 -15.42804,0.574951 -24.720032,1.782959c-58.711975,5.683044 -117.666992,-2.72998 -176.530975,-2.003967c-32.141998,-0.221008 -63.798004,-6.721985 -95.906006,-7.802002zm219.587006,13.312012c-3.583008,-2.39502 -1.005005,2.223999 0,0zm-279.632019,-9.55304c4.930023,0.079041 -4.929993,0.079041 0,0zm-25.839996,0.044067l-0.791992,0.088989l0.791992,-0.088989zm0.149017,0.662964l0.543976,0l-0.543976,0zm372.149963,2.653992c2.694031,0.169983 1.241028,0.074036 0,0zm-217.507965,0.398987c34.915985,1.534058 69.907013,1.491028 104.792999,3.626038c-34.841003,3.830017 -70.412018,2.809021 -104.792999,-3.626038zm127.712982,3.671021c8.002014,0.348022 -7.156982,0.179993 0,0zm24.057007,1.281006c10.957031,-2.687012 0.864014,3.283997 0,0zm-54.35199,13.578003c-13.212036,-0.166016 -25.210999,0.643982 -4.971985,0.645996c51.927002,0.859009 103.809998,3.407959 155.751953,3.598999c-50.294006,-0.382996 -100.472961,-4.338013 -150.779968,-4.244995zm-378.63501,2.874023c-20.459,0.732971 -64.777,-0.413025 -70.096001,0.615967c100.817009,-2.294983 201.323997,6.645996 301.525993,15.202026c50.320007,2.541016 100.742004,1.948975 151.11499,1.651001c-42.708984,-1.607056 -85.652985,1.22699 -128.413971,-1.590027c-84.848999,-3.627991 -169.065002,-16.098999 -254.131012,-15.878967zm382.544983,17.468994c-4.224976,1.39502 4.321045,-0.447998 0,0zm-1.138,0.531006c-34.338989,8.179993 -70.161987,7.389954 -105.38797,8.180969c35.192993,-0.429993 71.553986,2.414001 105.38797,-8.180969zm-495.804581,-17.911987c-11.014,0.461914 -43.548399,0.097961 -39.884701,0.891968c14.005001,-0.051025 45.216702,0.521973 48.920399,-0.797974c-3.011597,-0.044067 -6.023697,-0.070068 -9.035698,-0.093994zm-25.938599,17.557983c-9.308701,-1.383057 -41.539251,6.712952 -16.6373,2.555969c12.018599,-0.716003 47.059,-1.854004 16.6373,-2.555969zm19.899498,1.59198c47.849701,12.963989 98.328697,7.856995 147.513695,8.226013c-45.973999,-1.302002 -92.555992,3.166992 -137.769997,-6.724976c-3.246696,-0.506042 -6.493797,-1.01001 -9.743698,-1.501038zm-1.782097,0.309021l0.693001,0.177979l-0.693001,-0.177979zm391.752792,6.723999c-79.479004,2.697998 -159.033997,2.050964 -238.54599,1.237976c79.490997,1.903992 159.128998,3.280029 238.54599,-1.237976z" stroke-dashoffset="0" stroke-miterlimit="4" marker-end="none" marker-mid="none" marker-start="none" stroke-linejoin="bevel" stroke-linecap="round" stroke-width="4" fill-rule="nonzero" fill="#e9b96e" id="svg_9"/>
    <path d="m705.439026,466.036987c-38.120056,3.702026 -75.887024,9.710999 -113.80304,14.72702c38.372009,-1.895996 75.700012,-11.192017 114.001038,-13.666016l-0.197998,-1.061005zm-123.456055,16.806l-4.898987,0.686005l4.898987,-0.686005l0,0zm-5.889954,0.840027c-93.129028,6.888 -186.173004,16.784973 -279.636017,18.588989c-87.979996,-3.559998 -175.875,-9.348999 -263.962902,-10.070007c-13.289299,-1.173004 -33.129899,-0.498993 -7.867498,0.242004c84.054399,2.747986 168.144396,5.075012 252.043413,10.510986c77.292999,1.565002 154.130981,-7.875 231.134979,-12.317993c22.817017,-1.863007 45.60199,-4.075989 68.288025,-6.953979zm135.286987,15.876984c-10.442993,-1.046997 -2.825012,3.436005 0,0zm-11.286011,0.928009c-122.281982,9.658966 -245.002991,13.550995 -367.713989,14.850006c-12.277008,0.284973 -59.46402,2.004028 -25.709015,1.244019c130.02002,-2.409058 260.417999,-3.580017 389.868011,-14.970032c1.184998,-0.375 2.369019,-0.748993 3.554993,-1.123993zm-575.353989,11.01297c-35.385002,0.64502 -70.741707,2.468018 -105.981806,5.39502c35.566202,-0.794006 71.015001,-4.593994 106.595804,-4.902954l-0.613998,-0.492065l0,0zm6.386002,0.752014c22.258987,2 71.088989,4.555969 76.603989,4.054993c-25.535995,-1.328979 -51.013992,-3.652954 -76.603989,-4.054993zm145.830994,4.157043c-10.388,-0.284058 -51.621994,0.674927 -20.356995,0.845947c1.714996,0.195007 40.225006,-0.527954 20.356995,-0.845947zm-54.501007,0.265991l5.465012,0.286011l-5.465012,-0.286011l0,0zm-198.698195,8.357971c55.468397,6.433044 111.539198,8.774963 167.293196,13.072998c114.248016,7.596008 228.720001,13.393005 343.311981,13.903992c-170.55899,-2.18103 -340.724976,-13.950989 -510.605177,-26.97699l0,0zm363.191206,0.442017c-5.545013,0.634949 15.131989,0.072998 0,0zm5.445007,0.352966c10.964996,0.423035 59.836975,6.971008 27.5,5.621033c-20.924011,-0.438049 -41.90802,-0.494019 -62.726013,-2.638c13.257996,-2.213989 34.376007,-4.130005 8.652008,-2.637024c-19.787018,1.882019 -39.619019,3.969055 -59.552002,3.801025c61.290009,1.866028 123.171997,-1.372986 183.772003,8.682983c68.279999,2.840027 138.324005,-6.583008 204.767975,12.078003c30.744019,3.950012 -22.771973,-7.38501 -33.487976,-7.46698c-26.638,-7.763062 19.623962,-7.549011 28.231018,-9.41803c29.259949,-3.830017 -15.42804,0.575012 -24.721008,1.783997c-58.710999,5.682983 -117.666016,-2.729004 -176.530029,-2.004028c-32.142975,-0.221924 -63.797974,-6.721924 -95.905975,-7.802979zm219.587982,13.312012c-3.583984,-2.393982 -1.005981,2.224976 0,0zm-279.632996,-9.552979c4.929993,0.078979 -4.929993,0.078979 0,0zm-25.839996,0.044983l-0.792999,0.088989l0.792999,-0.088989zm0.148987,0.664001l0.544006,0l-0.544006,0zm372.149994,2.653015c2.695007,0.169006 1.241028,0.073975 0,0zm-217.507996,0.39801c34.916016,1.534973 69.906982,1.490967 104.79303,3.625977c-34.841003,3.829956 -70.412018,2.809998 -104.79303,-3.625977zm127.713013,3.671021c8.002014,0.348999 -7.15802,0.180969 0,0zm24.057983,1.282959c10.955994,-2.688965 0.862,3.281982 0,0zm-54.352966,13.575989c-13.212036,-0.164978 -25.212036,0.643982 -4.973022,0.647034c51.927979,0.859009 103.809998,3.406982 155.752991,3.598999c-50.294983,-0.384033 -100.473999,-4.338989 -150.779968,-4.246033zm-378.635025,2.875c-20.459,0.732971 -64.776993,-0.414001 -70.096992,0.616028c100.818001,-2.296021 201.325005,6.64502 301.527,15.202026c50.319,2.539917 100.742004,1.947998 151.11499,1.65094c-42.708984,-1.606995 -85.653992,1.226013 -128.414001,-1.591003c-84.848999,-3.626953 -169.065002,-16.098022 -254.130997,-15.877991l0,0zm382.544998,17.468994c-4.224976,1.396057 4.320984,-0.447998 0,0zm-1.138,0.530029c-34.338989,8.180969 -70.161987,7.390015 -105.388,8.182007c35.193024,-0.429993 71.55304,2.414001 105.388,-8.182007zm-495.804588,-17.909973c-11.014202,0.459961 -43.548601,0.095947 -39.884802,0.889954c14.0049,-0.049988 45.216497,0.522034 48.920301,-0.796997c-3.011604,-0.044983 -6.023598,-0.070007 -9.0355,-0.092957zm-25.938702,17.556946c-9.308701,-1.383972 -41.53928,6.713013 -16.6373,2.555969c12.018499,-0.714966 47.059004,-1.853943 16.6373,-2.555969zm19.899498,1.591003c47.849804,12.965027 98.327801,7.859009 147.513805,8.22699c-45.973999,-1.302002 -92.556007,3.16803 -137.770103,-6.723938c-3.246597,-0.508057 -6.493797,-1.011047 -9.743702,-1.503052l0,0zm-1.781998,0.311035l0.693001,0.177002l-0.693001,-0.177002zm391.752804,6.721985c-79.477997,2.698975 -159.035004,2.050964 -238.546005,1.237976c79.490005,1.905029 159.129013,3.280029 238.546005,-1.237976z" stroke-dashoffset="0" stroke-miterlimit="4" marker-end="none" marker-mid="none" marker-start="none" stroke-linejoin="bevel" stroke-linecap="round" stroke-width="4" fill-rule="nonzero" fill="#000000" opacity="0.7" id="svg_10"/>
   </g>
   <g id="svg_11">
    <path d="m13.6353,197.848007c204.206696,-3.634018 413.2397,-4.473007 617.303726,-12.098007l78.781982,-0.289001l7.490967,33.244003c-1.013977,-14.804001 -55.92395,5.654999 -1.015991,12.356003l-3.378967,41.125l-180.989014,6.55899l-515.096403,5.82901l3.017601,-47.895004c18.954298,-1.897995 15.568701,-7.300995 -3.2565,-15.126007l-2.857401,-23.704987l0,0z" stroke-dashoffset="0" stroke-miterlimit="4" marker-end="none" marker-mid="none" marker-start="none" stroke-linejoin="bevel" stroke-linecap="round" stroke-width="4" fill-rule="nonzero" fill="#8f5902" id="svg_12"/>
    <path d="m707.789551,187.486908c-37.911011,2.908997 -75.471008,7.631989 -113.179016,11.573975c38.161987,-1.48999 75.283997,-8.79599 113.375977,-10.73999l-0.19696,-0.833984zm-122.779053,13.207001l-4.871948,0.539993l4.871948,-0.539993l0,0zm-5.857971,0.660995c-92.617981,5.412994 -185.151978,13.190994 -278.102966,14.608994c-87.497009,-2.798004 -174.910034,-7.347015 -262.515499,-7.915009c-13.216402,-0.92099 -32.948292,-0.390991 -7.824402,0.19101c83.593884,2.160004 167.222912,3.988983 250.661892,8.261002c76.868988,1.229996 153.286011,-6.189011 229.86795,-9.681992c22.69104,-1.463013 45.352051,-3.202026 67.913025,-5.464005zm134.544983,12.477005c-10.38501,-0.823029 -2.80896,2.700989 0,0zm-11.224976,0.72998c-121.609985,7.591003 -243.65802,10.650009 -365.697021,11.671021c-12.208984,0.223999 -59.13797,1.574997 -25.567993,0.97699c129.307007,-1.893005 258.991028,-2.813019 387.731018,-11.764999c1.177979,-0.293991 2.356018,-0.589005 3.533997,-0.883011zm-572.197998,8.654999c-35.191383,0.507019 -70.354187,1.940018 -105.401196,4.240021c35.371296,-0.624023 70.625698,-3.610016 106.010204,-3.853012l-0.609009,-0.387009l0,0zm6.351013,0.591019c22.136993,1.571976 70.699005,3.580994 76.18399,3.186996c-25.395996,-1.044006 -50.734985,-2.871002 -76.18399,-3.186996zm145.031006,3.266998c-10.330994,-0.223007 -51.33902,0.530991 -20.245026,0.664993c1.704987,0.153 40.003998,-0.414993 20.245026,-0.664993zm-54.202026,0.207993l5.434998,0.225983l-5.434998,-0.225983l0,0zm-197.608891,6.569c55.164204,5.056992 110.927921,6.897003 166.375889,10.275009c113.62204,5.969986 227.466034,10.525986 341.430023,10.926987c-169.624023,-1.714005 -338.856995,-10.96402 -507.805912,-21.201996zm361.198917,0.348007c-5.514038,0.497986 15.049988,0.057968 0,0zm5.416016,0.277969c10.904968,0.332001 59.508972,5.478027 27.347961,4.417038c-20.809021,-0.344025 -41.677002,-0.388016 -62.382019,-2.073013c13.187012,-1.740021 34.189026,-3.246002 8.606018,-2.072021c-19.678986,1.479004 -39.401978,3.119019 -59.226013,2.987c60.953003,1.466019 122.497009,-1.078979 182.764038,6.82402c67.906982,2.231003 137.566956,-5.173981 203.644958,9.49202c30.577026,3.102966 -22.645996,-5.804016 -33.302979,-5.868042c-26.492004,-6.100967 19.515015,-5.932983 28.075989,-7.401978c29.099976,-3.01001 -15.343994,0.451996 -24.585022,1.401978c-58.389954,4.466019 -117.020996,-2.145996 -175.562988,-1.574982c-31.966003,-0.174011 -63.447998,-5.283005 -95.379944,-6.132019zm218.382935,10.462021c-3.562988,-1.882004 -0.998962,1.748001 0,0zm-278.098938,-7.508011c4.902985,0.062012 -4.903015,0.062012 0,0zm-25.697998,0.035019l-0.788055,0.069992l0.788055,-0.069992zm0.147949,0.520996l0.541016,0l-0.541016,0zm370.109985,2.085999c2.679016,0.13298 1.234009,0.057999 0,0zm-216.315979,0.313019c34.725037,1.205978 69.523987,1.171982 104.218994,2.849976c-34.649963,3.009995 -70.026001,2.208008 -104.218994,-2.849976zm127.013,2.884964c7.958008,0.274017 -7.117981,0.141998 0,0zm23.924988,1.007019c10.897034,-2.112 0.859009,2.580994 0,0zm-54.054016,10.67099c-13.138977,-0.130005 -25.072998,0.506012 -4.944946,0.507996c51.642944,0.674988 103.240967,2.678009 154.898987,2.828003c-50.018982,-0.300995 -99.923035,-3.408997 -149.954041,-3.335999zm-376.55896,2.259003c-20.346985,0.575989 -64.421997,-0.325012 -69.712006,0.484009c100.265015,-1.804016 200.221039,5.222992 299.873016,11.946991c50.044006,1.997009 100.190002,1.531982 150.286987,1.298035c-42.475037,-1.263031 -85.184021,0.963959 -127.710022,-1.250031c-84.383972,-2.850983 -168.13797,-12.652008 -252.737976,-12.479004zm380.447998,13.729034c-4.202026,1.095947 4.296997,-0.352051 0,0zm-1.132019,0.416992c-34.151001,6.428955 -69.776978,5.807983 -104.809998,6.429962c35,-0.337982 71.161011,1.897003 104.809998,-6.429962zm-493.086273,-14.077026c-10.953705,0.363007 -43.309704,0.077026 -39.666103,0.700989c13.9282,-0.039978 44.968807,0.410034 48.652203,-0.626953c-2.995102,-0.035034 -5.990601,-0.055054 -8.986099,-0.074036zm-25.796402,13.798981c-9.257702,-1.086975 -41.311522,5.276031 -16.546101,2.009003c11.952698,-0.562988 46.800999,-1.457001 16.546101,-2.009003zm19.79039,1.251007c47.587311,10.188995 97.789307,6.175018 146.705322,6.464996c-45.722015,-1.02298 -92.049011,2.489014 -137.015015,-5.285004c-3.228897,-0.397949 -6.458206,-0.793976 -9.690308,-1.179993zm-1.772293,0.243011l0.689194,0.139984l-0.689194,-0.139984zm389.60463,5.284027c-79.04303,2.120972 -158.162018,1.612 -237.238022,0.972961c79.055008,1.497009 158.257034,2.578003 237.238022,-0.972961z" stroke-dashoffset="0" stroke-miterlimit="4" marker-end="none" marker-mid="none" marker-start="none" stroke-linejoin="bevel" stroke-linecap="round" stroke-width="4" fill-rule="nonzero" fill="#e9b96e" id="svg_13"/>
    <path d="m707.789551,187.486908c-37.911011,2.908997 -75.471008,7.631989 -113.179016,11.573975c38.161987,-1.48999 75.283997,-8.79599 113.375977,-10.73999l-0.19696,-0.833984zm-122.779053,13.207001l-4.871948,0.539993l4.871948,-0.539993l0,0zm-5.857971,0.660995c-92.617981,5.412994 -185.151978,13.190994 -278.102966,14.608994c-87.497009,-2.798004 -174.910034,-7.347015 -262.515499,-7.915009c-13.216402,-0.92099 -32.948292,-0.390991 -7.824402,0.19101c83.593884,2.160004 167.222912,3.988983 250.661892,8.261002c76.868988,1.229996 153.286011,-6.189011 229.86795,-9.681992c22.69104,-1.463013 45.352051,-3.202026 67.913025,-5.464005zm134.544983,12.477005c-10.38501,-0.823029 -2.80896,2.700989 0,0zm-11.224976,0.72998c-121.609985,7.591003 -243.65802,10.650009 -365.697021,11.671021c-12.208984,0.223999 -59.13797,1.574997 -25.567993,0.97699c129.307007,-1.893005 258.991028,-2.813019 387.731018,-11.764999c1.177979,-0.293991 2.356018,-0.589005 3.533997,-0.883011zm-572.197998,8.654999c-35.191383,0.507019 -70.354187,1.940018 -105.401196,4.240021c35.371296,-0.624023 70.625698,-3.610016 106.010204,-3.853012l-0.609009,-0.387009l0,0zm6.351013,0.591019c22.136993,1.571976 70.699005,3.580994 76.18399,3.186996c-25.395996,-1.044006 -50.734985,-2.871002 -76.18399,-3.186996zm145.031006,3.266998c-10.330994,-0.223007 -51.33902,0.530991 -20.245026,0.664993c1.704987,0.153 40.003998,-0.414993 20.245026,-0.664993zm-54.202026,0.207993l5.434998,0.225983l-5.434998,-0.225983l0,0zm-197.608891,6.569c55.164204,5.056992 110.927921,6.897003 166.375889,10.275009c113.62204,5.969986 227.466034,10.525986 341.430023,10.926987c-169.624023,-1.714005 -338.856995,-10.96402 -507.805912,-21.201996zm361.198917,0.348007c-5.514038,0.497986 15.049988,0.057968 0,0zm5.416016,0.277969c10.904968,0.332001 59.508972,5.478027 27.347961,4.417038c-20.809021,-0.344025 -41.677002,-0.388016 -62.382019,-2.073013c13.187012,-1.740021 34.189026,-3.246002 8.606018,-2.072021c-19.678986,1.479004 -39.401978,3.119019 -59.226013,2.987c60.953003,1.466019 122.497009,-1.078979 182.764038,6.82402c67.906982,2.231003 137.566956,-5.173981 203.644958,9.49202c30.577026,3.102966 -22.645996,-5.804016 -33.302979,-5.868042c-26.492004,-6.100967 19.515015,-5.932983 28.075989,-7.401978c29.099976,-3.01001 -15.343994,0.451996 -24.585022,1.401978c-58.389954,4.466019 -117.020996,-2.145996 -175.562988,-1.574982c-31.966003,-0.174011 -63.447998,-5.283005 -95.379944,-6.132019zm218.382935,10.462021c-3.562988,-1.882004 -0.998962,1.748001 0,0zm-278.098938,-7.508011c4.902985,0.062012 -4.903015,0.062012 0,0zm-25.697998,0.035019l-0.788055,0.069992l0.788055,-0.069992zm0.147949,0.520996l0.541016,0l-0.541016,0zm370.109985,2.085999c2.679016,0.13298 1.234009,0.057999 0,0zm-216.315979,0.313019c34.725037,1.205978 69.523987,1.171982 104.218994,2.849976c-34.649963,3.009995 -70.026001,2.208008 -104.218994,-2.849976zm127.013,2.884964c7.958008,0.274017 -7.117981,0.141998 0,0zm23.924988,1.007019c10.897034,-2.112 0.859009,2.580994 0,0zm-54.054016,10.67099c-13.138977,-0.130005 -25.072998,0.506012 -4.944946,0.507996c51.642944,0.674988 103.240967,2.678009 154.898987,2.828003c-50.018982,-0.300995 -99.923035,-3.408997 -149.954041,-3.335999zm-376.55896,2.259003c-20.346985,0.575989 -64.421997,-0.325012 -69.712006,0.484009c100.265015,-1.804016 200.221039,5.222992 299.873016,11.946991c50.044006,1.997009 100.190002,1.531982 150.286987,1.298035c-42.475037,-1.263031 -85.184021,0.963959 -127.710022,-1.250031c-84.383972,-2.850983 -168.13797,-12.652008 -252.737976,-12.479004zm380.447998,13.729034c-4.202026,1.095947 4.296997,-0.352051 0,0zm-1.132019,0.416992c-34.151001,6.428955 -69.776978,5.807983 -104.809998,6.429962c35,-0.337982 71.161011,1.897003 104.809998,-6.429962zm-493.086273,-14.077026c-10.953705,0.363007 -43.309704,0.077026 -39.666103,0.700989c13.9282,-0.039978 44.968807,0.410034 48.652203,-0.626953c-2.995102,-0.035034 -5.990601,-0.055054 -8.986099,-0.074036zm-25.796402,13.798981c-9.257702,-1.086975 -41.311522,5.276031 -16.546101,2.009003c11.952698,-0.562988 46.800999,-1.457001 16.546101,-2.009003zm19.79039,1.251007c47.587311,10.188995 97.789307,6.175018 146.705322,6.464996c-45.722015,-1.02298 -92.049011,2.489014 -137.015015,-5.285004c-3.228897,-0.397949 -6.458206,-0.793976 -9.690308,-1.179993zm-1.772293,0.243011l0.689194,0.139984l-0.689194,-0.139984zm389.60463,5.284027c-79.04303,2.120972 -158.162018,1.612 -237.238022,0.972961c79.055008,1.497009 158.257034,2.578003 237.238022,-0.972961z" stroke-dashoffset="0" stroke-miterlimit="4" marker-end="none" marker-mid="none" marker-start="none" stroke-linejoin="bevel" stroke-linecap="round" stroke-width="4" fill-rule="nonzero" fill="#e9b96e" id="svg_14"/>
    <path d="m705.561523,185.91391c-37.911011,2.908997 -75.471008,7.631989 -113.179016,11.57399c38.162048,-1.490005 75.285034,-8.796005 113.376038,-10.740005l-0.197021,-0.833984zm-122.778992,13.207993l-4.872009,0.539001l4.872009,-0.539001l0,0zm-5.858032,0.659988c-92.617981,5.412994 -185.151978,13.19101 -278.102966,14.609009c-87.496979,-2.798004 -174.909973,-7.347015 -262.515385,-7.914001c-13.216398,-0.921997 -32.948268,-0.391998 -7.824398,0.190002c83.593796,2.160004 167.222794,3.988998 250.661835,8.261002c76.868958,1.229996 153.28598,-6.188995 229.86795,-9.681015c22.690979,-1.464005 45.35199,-3.203003 67.912964,-5.464996zm134.545044,12.478012c-10.38501,-0.822998 -2.809021,2.699997 0,0zm-11.223999,0.729004c-121.611023,7.590988 -243.658997,10.649994 -365.697998,11.670975c-12.209015,0.223999 -59.138,1.575012 -25.567993,0.97702c129.307007,-1.893005 258.990967,-2.813019 387.730957,-11.765015c1.17804,-0.294006 2.356018,-0.587982 3.535034,-0.88298zm-572.198975,8.654999c-35.191299,0.507004 -70.354099,1.939987 -105.400999,4.239975c35.371199,-0.623978 70.625608,-3.609985 106.011015,-3.852997l-0.610016,-0.386978l0,0zm6.351013,0.590988c22.136993,1.572006 70.699005,3.580994 76.18399,3.187012c-25.395996,-1.044006 -50.734985,-2.871002 -76.18399,-3.187012zm145.030975,3.266998c-10.330963,-0.222992 -51.338989,0.531006 -20.244995,0.665009c1.705017,0.153 40.004028,-0.415009 20.244995,-0.665009zm-54.201996,0.209015l5.435028,0.224991l-5.435028,-0.224991l0,0zm-197.608793,6.56897c55.164198,5.056 110.927794,6.895996 166.375822,10.274017c113.621979,5.970001 227.465973,10.526016 341.429932,10.927017c-169.623932,-1.714035 -338.856964,-10.964035 -507.805754,-21.201035zm361.199827,0.347015c-5.514038,0.498993 15.04895,0.057983 0,0zm5.414978,0.278c10.904968,0.332001 59.508972,5.477997 27.348999,4.417007c-20.809021,-0.344009 -41.677979,-0.387985 -62.382019,-2.072998c13.186035,-1.740021 34.187988,-3.245987 8.605042,-2.072006c-19.679047,1.479004 -39.402039,3.119003 -59.226013,2.987c60.953979,1.466003 122.497009,-1.078979 182.765015,6.824005c67.905914,2.231995 137.56601,-5.174026 203.644989,9.491989c30.575989,3.104004 -22.647034,-5.804001 -33.304016,-5.868011c-26.492004,-6.100983 19.51593,-5.932983 28.075989,-7.401962c29.100037,-3.01001 -15.343018,0.451981 -24.584961,1.401962c-58.390076,4.466019 -117.021057,-2.144974 -175.563019,-1.574982c-31.966003,-0.173996 -63.447998,-5.28302 -95.380005,-6.132004zm218.384003,10.462006c-3.564026,-1.881989 -1,1.748001 0,0zm-278.100006,-7.507996c4.902985,0.061996 -4.902985,0.061996 0,0zm-25.697998,0.035004l-0.788025,0.070007l0.788025,-0.070007zm0.14801,0.521988l0.541016,0l-0.541016,0zm370.110016,2.085007c2.679932,0.132996 1.234009,0.057999 0,0zm-216.31601,0.312973c34.724976,1.206024 69.524017,1.172028 104.218964,2.850006c-34.649963,3.010025 -70.02597,2.208008 -104.218964,-2.850006zm127.01297,2.885025c7.958008,0.274002 -7.117981,0.141983 0,0zm23.925964,1.00798c10.895996,-2.112976 0.858093,2.580032 0,0zm-54.054993,10.670013c-13.138977,-0.130005 -25.072998,0.505981 -4.945007,0.507996c51.643066,0.674988 103.241028,2.678009 154.898987,2.82901c-50.018921,-0.302002 -99.922913,-3.410004 -149.953979,-3.337006zm-376.55896,2.259033c-20.346985,0.575989 -64.422005,-0.325043 -69.711998,0.483948c100.265007,-1.803955 200.221001,5.223022 299.872978,11.948029c50.044006,1.995972 100.189972,1.530975 150.287018,1.296997c-42.475037,-1.263 -85.18399,0.96402 -127.709991,-1.25c-84.384033,-2.850983 -168.138,-12.652008 -252.738007,-12.478973zm380.447998,13.728973c-4.202026,1.096985 4.296997,-0.35202 0,0zm-1.132019,0.416992c-34.15094,6.428986 -69.777008,5.807983 -104.809967,6.430023c35,-0.338013 71.160919,1.896973 104.809967,-6.430023zm-493.08606,-14.075989c-10.953812,0.362 -43.309801,0.075989 -39.666111,0.699982c13.928101,-0.040009 44.968616,0.410004 48.652103,-0.626984c-2.995102,-0.035004 -5.990585,-0.055023 -8.985992,-0.072998zm-25.796513,13.797974c-9.257687,-1.086975 -41.311508,5.276001 -16.546099,2.009003c11.9527,-0.561981 46.801001,-1.45697 16.546099,-2.009003zm19.790409,1.251007c47.587204,10.189026 97.7892,6.176025 146.705185,6.465027c-45.721985,-1.02301 -92.048981,2.48999 -137.014885,-5.283997c-3.228798,-0.399017 -6.458199,-0.795013 -9.6903,-1.18103zm-1.772209,0.244019l0.689201,0.138977l-0.689201,-0.138977zm389.60537,5.28299c-79.042969,2.121002 -158.162933,1.61203 -237.238968,0.972992c79.055008,1.497009 158.257004,2.578003 237.238968,-0.972992z" stroke-dashoffset="0" stroke-miterlimit="4" marker-end="none" marker-mid="none" marker-start="none" stroke-linejoin="bevel" stroke-linecap="round" stroke-width="4" fill-rule="nonzero" fill="#000000" opacity="0.7" id="svg_15"/>
   </g>
   <g id="svg_16">
    <path d="m381.303497,217.017395a5.3033,6.01041 0 1 1 -10.606995,0a5.3033,6.01041 0 1 1 10.606995,0z" stroke-dashoffset="0" stroke-miterlimit="4" marker-end="none" marker-mid="none" marker-start="none" stroke-linejoin="bevel" stroke-linecap="round" stroke-width="4" fill-rule="nonzero" fill="url(#linearGradient2619)" opacity="0.7" id="svg_17"/>
    <path d="m379.726501,216.792389a3.875,4.5 0 1 1 -7.75,0a3.875,4.5 0 1 1 7.75,0z" stroke-dashoffset="0" stroke-miterlimit="4" marker-end="none" marker-mid="none" marker-start="none" stroke-linejoin="bevel" stroke-linecap="round" stroke-width="4" fill-rule="nonzero" fill="#babdb6" id="svg_18"/>
    <path d="m379.28949,214.868393c0.110016,0.416992 0.187012,0.852997 0.187012,1.311996c0,2.483994 -1.735992,4.5 -3.875,4.5c-1.505005,0 -2.79599,-1.013 -3.437012,-2.468994c0.47702,1.855988 1.934021,3.218994 3.687012,3.218994c2.139008,0 3.875,-2.016006 3.875,-4.5c0,-0.742996 -0.161987,-1.444 -0.437012,-2.061996z" stroke-dashoffset="0" stroke-miterlimit="4" marker-end="none" marker-mid="none" marker-start="none" stroke-linejoin="bevel" stroke-linecap="round" stroke-width="4" fill-rule="nonzero" fill="#555753" id="svg_19"/>
   </g>
   <g id="svg_20">
    <path d="m380.303497,261.017395a5.3033,6.01041 0 1 1 -10.606995,0a5.3033,6.01041 0 1 1 10.606995,0z" stroke-dashoffset="0" stroke-miterlimit="4" marker-end="none" marker-mid="none" marker-start="none" stroke-linejoin="bevel" stroke-linecap="round" stroke-width="4" fill-rule="nonzero" fill="url(#linearGradient2619)" opacity="0.7" id="svg_21"/>
    <path d="m378.726501,260.792389a3.875,4.5 0 1 1 -7.75,0a3.875,4.5 0 1 1 7.75,0z" stroke-dashoffset="0" stroke-miterlimit="4" marker-end="none" marker-mid="none" marker-start="none" stroke-linejoin="bevel" stroke-linecap="round" stroke-width="4" fill-rule="nonzero" fill="#babdb6" id="svg_22"/>
    <path d="m378.28949,258.868408c0.110016,0.416992 0.187012,0.852966 0.187012,1.311981c0,2.483978 -1.735992,4.5 -3.875,4.5c-1.505005,0 -2.79599,-1.013 -3.437012,-2.468994c0.47702,1.855988 1.934021,3.218994 3.687012,3.218994c2.139008,0 3.875,-2.016022 3.875,-4.5c0,-0.743011 -0.161987,-1.444 -0.437012,-2.061981z" stroke-dashoffset="0" stroke-miterlimit="4" marker-end="none" marker-mid="none" marker-start="none" stroke-linejoin="bevel" stroke-linecap="round" stroke-width="4" fill-rule="nonzero" fill="#555753" id="svg_23"/>
   </g>
   <g id="svg_24">
    <path d="m389.303497,492.017395a5.3033,6.01041 0 1 1 -10.606995,0a5.3033,6.01041 0 1 1 10.606995,0z" stroke-dashoffset="0" stroke-miterlimit="4" marker-end="none" marker-mid="none" marker-start="none" stroke-linejoin="bevel" stroke-linecap="round" stroke-width="4" fill-rule="nonzero" fill="url(#linearGradient2619)" opacity="0.7" id="svg_25"/>
    <path d="m387.726501,491.792389a3.875,4.5 0 1 1 -7.75,0a3.875,4.5 0 1 1 7.75,0z" stroke-dashoffset="0" stroke-miterlimit="4" marker-end="none" marker-mid="none" marker-start="none" stroke-linejoin="bevel" stroke-linecap="round" stroke-width="4" fill-rule="nonzero" fill="#babdb6" id="svg_26"/>
    <path d="m387.28949,489.868408c0.110016,0.416962 0.187012,0.852966 0.187012,1.311981c0,2.484009 -1.735992,4.5 -3.875,4.5c-1.505005,0 -2.79599,-1.013 -3.437012,-2.468994c0.47702,1.855988 1.934021,3.218994 3.687012,3.218994c2.139008,0 3.875,-2.016022 3.875,-4.5c0,-0.742981 -0.161987,-1.444 -0.437012,-2.061981z" stroke-dashoffset="0" stroke-miterlimit="4" marker-end="none" marker-mid="none" marker-start="none" stroke-linejoin="bevel" stroke-linecap="round" stroke-width="4" fill-rule="nonzero" fill="#555753" id="svg_27"/>
   </g>
   <g id="svg_28">
    <path d="m387.303497,556.017395a5.3033,6.01041 0 1 1 -10.606995,0a5.3033,6.01041 0 1 1 10.606995,0z" stroke-dashoffset="0" stroke-miterlimit="4" marker-end="none" marker-mid="none" marker-start="none" stroke-linejoin="bevel" stroke-linecap="round" stroke-width="4" fill-rule="nonzero" fill="url(#linearGradient2619)" opacity="0.7" id="svg_29"/>
    <path d="m385.726501,555.792358a3.875,4.5 0 1 1 -7.75,0a3.875,4.5 0 1 1 7.75,0z" stroke-dashoffset="0" stroke-miterlimit="4" marker-end="none" marker-mid="none" marker-start="none" stroke-linejoin="bevel" stroke-linecap="round" stroke-width="4" fill-rule="nonzero" fill="#babdb6" id="svg_30"/>
    <path d="m385.28949,553.868408c0.110016,0.416992 0.187012,0.852966 0.187012,1.312012c0,2.483948 -1.735992,4.5 -3.875,4.5c-1.505005,0 -2.79599,-1.013062 -3.437012,-2.468994c0.47702,1.855957 1.934021,3.218933 3.687012,3.218933c2.139008,0 3.875,-2.015991 3.875,-4.499939c0,-0.743042 -0.161987,-1.444031 -0.437012,-2.062012z" stroke-dashoffset="0" stroke-miterlimit="4" marker-end="none" marker-mid="none" marker-start="none" stroke-linejoin="bevel" stroke-linecap="round" stroke-width="4" fill-rule="nonzero" fill="#555753" id="svg_31"/>
   </g>
  </g>
 </g>
</svg>